<mxfile host="65bd71144e">
    <diagram id="2wZ-GZjQ85nNICDqrDcq" name="第 1 页">
        <mxGraphModel dx="1026" dy="874" grid="0" gridSize="10" guides="1" tooltips="1" connect="1" arrows="1" fold="1" page="1" pageScale="1" pageWidth="10000" pageHeight="5000" math="0" shadow="0">
            <root>
                <mxCell id="0"/>
                <mxCell id="1" parent="0"/>
                <mxCell id="100" value="" style="rounded=0;whiteSpace=wrap;html=1;labelBackgroundColor=none;fontFamily=Helvetica;fontSize=13;fontColor=#000000;fillColor=#67BF5A;strokeColor=none;" vertex="1" parent="1">
                    <mxGeometry x="81" y="567" width="647" height="858" as="geometry"/>
                </mxCell>
                <mxCell id="83" value="" style="rounded=1;whiteSpace=wrap;html=1;labelBackgroundColor=#FFFFFF;fontFamily=Helvetica;fontSize=14;fontColor=#000000;fillColor=#f0a30a;strokeColor=#BD7000;" vertex="1" parent="1">
                    <mxGeometry x="215" y="628" width="379" height="256" as="geometry"/>
                </mxCell>
                <mxCell id="55" value="" style="rounded=0;whiteSpace=wrap;html=1;labelBackgroundColor=none;fontFamily=Times New Roman;fontSize=16;fillColor=#f5f5f5;fontColor=#333333;strokeColor=none;" parent="1" vertex="1">
                    <mxGeometry x="330" y="21" width="1009" height="398" as="geometry"/>
                </mxCell>
                <mxCell id="4" value="Tests in @playwright/test" style="html=1;shadow=0;dashed=0;shape=mxgraph.bootstrap.rrect;rSize=5;strokeColor=none;strokeWidth=1;fillColor=#33A64C;fontColor=#FFFFFF;whiteSpace=wrap;align=center;verticalAlign=middle;spacingLeft=0;fontStyle=0;fontSize=16;spacing=5;labelBackgroundColor=none;fontFamily=Times New Roman;" parent="1" vertex="1">
                    <mxGeometry x="42" y="157.5" width="132" height="125" as="geometry"/>
                </mxCell>
                <mxCell id="36" style="edgeStyle=none;html=1;fontFamily=Times New Roman;fontSize=14;fontColor=default;exitX=1;exitY=0.5;exitDx=0;exitDy=0;" parent="1" source="56" edge="1">
                    <mxGeometry relative="1" as="geometry">
                        <mxPoint x="507" y="220" as="targetPoint"/>
                        <mxPoint x="862" y="466.9111075841188" as="sourcePoint"/>
                    </mxGeometry>
                </mxCell>
                <mxCell id="11" value="" style="endArrow=classic;startArrow=classic;html=1;fontFamily=Times New Roman;fontColor=default;fontSize=24;" parent="1" edge="1">
                    <mxGeometry width="50" height="50" relative="1" as="geometry">
                        <mxPoint x="179.5" y="219.5" as="sourcePoint"/>
                        <mxPoint x="324.5" y="219.5" as="targetPoint"/>
                    </mxGeometry>
                </mxCell>
                <mxCell id="12" value="WebSocket" style="text;html=1;align=center;verticalAlign=middle;resizable=0;points=[];autosize=1;strokeColor=none;fillColor=none;fontFamily=Times New Roman;fontColor=default;fontSize=14;" parent="1" vertex="1">
                    <mxGeometry x="219" y="196" width="73" height="21" as="geometry"/>
                </mxCell>
                <mxCell id="13" value="Commands" style="text;html=1;align=center;verticalAlign=middle;resizable=0;points=[];autosize=1;strokeColor=none;fillColor=none;fontFamily=Times New Roman;fontColor=default;fontSize=14;" parent="1" vertex="1">
                    <mxGeometry x="217" y="227" width="74" height="21" as="geometry"/>
                </mxCell>
                <mxCell id="39" style="edgeStyle=none;html=1;entryX=0;entryY=0.5;entryDx=0;entryDy=0;fontFamily=Times New Roman;fontSize=14;fontColor=default;" parent="1" source="23" target="31" edge="1">
                    <mxGeometry relative="1" as="geometry"/>
                </mxCell>
                <mxCell id="23" value="浏览器" style="swimlane;rounded=1;labelBackgroundColor=none;fontFamily=Times New Roman;fontColor=default;fontSize=24;startSize=33;" parent="1" vertex="1">
                    <mxGeometry x="516" y="96.5" width="105" height="247" as="geometry"/>
                </mxCell>
                <mxCell id="15" value="" style="shape=image;verticalLabelPosition=bottom;labelBackgroundColor=#ffffff;verticalAlign=top;aspect=fixed;imageAspect=0;image=data:image/png,iVBORw0KGgoAAAANSUhEUgAAADAAAAAwCAYAAABXAvmHAAAAAXNSR0IArs4c6QAAAERlWElmTU0AKgAAAAgAAYdpAAQAAAABAAAAGgAAAAAAA6ABAAMAAAABAAEAAKACAAQAAAABAAAAMKADAAQAAAABAAAAMAAAAADbN2wMAAALpElEQVRoBcVZfXBVxRU/ez/yXvJe8ggfIYEQEkoSUypWibUFFbWOwHSAjhXp1EFbOxXHamtba6d/9c200z9a2modndGZOuLUqRWZ6fTDj44MShtAkSLSoJiqkA8CgXwn7737tdtz7n37cnPfveQFtd3k5u6ePXvO75w9u3v2hsHHUNLpzrL3wW4ZGXWuygjtc0JTLrO50gi2M4fEq0wZ5px3C8U5Us6MN+Mx5/XeV469e/jwduujqmcXK+C69F5trpVaPTZa/gNLZ5tMS0yJ8lUlMUjSNQaqk/tTMj7+8F937NkHkOaSdzbvWRtA3j6csbeNmtqvbVupImVBcC6AADHQ9FjyRF3lo3F98ofVPYmdu3atMN3OEv/MyoAv/+jtDYMZ7Q+OYCm//DBwQavCeESAqDBrKKWObXvpt1e/4Jd/oXpJBmz75dFEf3/Z81mLrSdhIqiZaEEtRYRinqAY2Y6pmZdr+fu37Hrs1omg2GB7RgO+9tPjzT1nrYOcxebKwZ+0AaRHFdZgPNa3Zu/DG05IvWHvCxqwOX1k9dA5/R9c0ZTg4KARRQ4vIpQ+A1KXw7gzD3qv/ftj6/ZLWvAdacDm9LHVw0NaB0cgAorZ/hcGEFimCEjqp1fveejGA0Hwbn8YccuDR1v7x+G40HT0fJHzP/E14Mck0H02E85cdvLTex790nv+PqoXoduS3pvsmeT7OdMUwdHzuLLo5/9ZNMHUcaeh46ZtTyeCOIoMODtQvZs52lwvahA6GsAIv9wighKoK4QWJJXCExzjb6MN88crLnkeadPieZoBdz4x8q3yhHITCAfw6Edk+NAkuD/euGDs+5V83PXgzNtKcv3V9+xd59dTsCa9V2jd74yPA5jxzsPHgemVoDANhKKiDfiDnBwNobq/hHqWZos7yEYjvAwhyBc2oUFacAzpVbg98kbX3xbAq2mb2gU025+auN2xlJ1EOHPqOAz050BBI0DRCmxkhFsKlenhUxV3YO1lFbCqtQIaa3WYkyDjASayDpwdNOC9nkno/CADOUwWFJTBFOzFt4qPgrsNLUlFpbqCfdSibq+tYO5EdVXFPg2++eOtjU8SFhfSc88J9eXBzBDTmJvbMGHB0Y7XgJXNB9CqvJWOQr1Cgrya9FBcd2DrdVWweU0llKGCYJF8RLcdAYeOZ+BAJx6yTEWKZwiJV/IG0VvDmSdjGD4qtgk8qVVIPufD999cMw9pgtwLByezV0rw1BZMh6bWNvjw3S70FA5QE+4aJgE4BsOCimdFbbWAn2yrgyULMNyQeqSbwf4uBl1nAQYnPaXVSQHNCwGubhawcgnAFy5NQMvSOPxl/yTODnqYwCEwDc9LFR+NvJwH7akhA0i3Jw8hVT+zJ9OO6g65Boxb/HvunBGufKmcXwdl8ZNgWeMITMdIimMPA46B6okRUFfN4Bfb66A6oUDPMMDjryrwwYBnmJRDRg2MMXwAOtCw5TUCtl/PYfEcFbZeXwl/PmSAYelTXsbhrgZ3Isk4V23eDtSMdNI/ZrP7sec2Rou3tytbyObJUlms7Ai8e/htEHoMZyGFU1yGc0jDGcR0gIfuWeh6/t+9DHa8zMC0fYPzQvzhI+XGVAEPbBCwYrGA0YyAF49QjyfX87S3trw1QmsB5eIvzZRbEINlmWJgXUpTxrqNZX4ltBPIR4+loGouLmQHL072BNKtQt9X0XsUNuT52YCnODPQ0B0vMugbAUhVMLi0QbiLU6VLDoURhZOuuqGkqbgW3LBSvfDSVNBxwZTHy1nrwVyDMsEFxVJoEWhxfXMbGoA7Fp4LwsoAQ2NSFYALNunGPIVNqZ73KyEjntiruDIuWYyAdO4CJgMUzGDICLke9Hwdr6YunRYyLWzBlFWKcKINIIUU+3XLlmKN9nU84JwsrF0Zd3ebt7pZUczTGP+MUrtQAh1dZxm8jeGHeKB+AW545HX0rope92bCexPgwrabF0aiuA3timXx9oDcgj5ZWbCoAUMHueh0xnJFKy1ocHcbt+L7EykrpINIHSe8uF6UwjWA4ClcyLsu4HzIR3nE5uzzmLCpnyL9JCzq4aBC84pmZEADML9uqsVFjYW2Sn8Jweh1R3YAnMjLqMSwROF+cTPWUWwTnhkmnlYzl3hqHpRV4NaDKcKcJB1A3j4vR0ZijOiQ5CE8K6jENDxf8jMsZbpvyegjShITxkLFEYqbU/j6I6oKLG9rxT5aC14h1SRMCsyTp14RHRHkqXEl1jhiVzRVDJTID2osCdU1VTAy4big6YSNLBfo8o+Zl/RatCvRGphWQmT4SY6jn6ZLy6mCG6nXzyGl5em0jhc1NcGHvVm3h9KD0BImI88Y7Gpd6FHGUCSjY3YWRQG7TxEKO1g0hmT6Hx8DU2LQdd5TRLlNUQkhSZ6wrjUtHvX8uNxy8twhzEESHnz7MYsV/5IKSn13DVUCfUpcuUS4uY07jqQHNfgEhnW11AJcWi/AwavrmVFvYyjI8o2NrDL7CB6FzpuRDBEdE6YKr/5HGOQzSswot4kqUXbFcUO7e61DKQ509phgcDevjBIT6hvDsA4pDQOpk7O5JkpAr71TFjuDGeZi/P5MiRltg8FSTPE4CPyDGzhms3h5GrTg5LB3MLq9IYNCSGAYOdF/Y3Wvkk4zzgV7hphKeSRIyn92dmgwngM3q/zZLRxzfk+VlCN5/W8Km5/f7EDbIgEjkw7sO2HiPQCzXCrecK8+w1+FqU+nGaPvJgB3PnKuXZQlDs0wJrR7QZWAO1bbsBDvcqSfchtKD+iElYcUbZW029CCpZgnpX3nbdjdMQzLlzdMeS5EQ5RN2Yz52bvXJ4+6BmCiw25/JDOgxlhJp3JQTxmG7w1tHK5p4ZjkRan0RhmYme85loUXDg7BNZfXQmUlWhcxJIIM3LLOff2GioWFKyVuwEJ9dPBegPJng+BKaZt4lr90TMEblwKX1XNoXYTxjTOSiHsQJnIMTo840HnKgDe7cjA+aUPLkqqLAk94HGHexVjCFe7NABK34MU+MTh2mil6TSmgZ+Jxb1Z5JsoBjewY3osszAUdKAMD1rbX4a3Ot3h9AqM8Tyy2aQ/0fLG8juKf2oWjb9etzFEdYwsRP2qRmbeDKtzHwdQDgbt0rLc1VV4UeMJlO5lNEjy1CwZQ43f31uwzDeN5ql9MIYD0+Att0Zyj53G/EJjJVuPM19cU/tXgZ41aCgUe0zT/uH3d/NcLBKxMM4A69MqRbbhISk7wJOgg8IISvD84NAN4fXLQgEuaUsVJGzIH7C4MlxVuWv19Q6dul235LjLgqW805Qw20c5NYypvznP7wcq6FBT2dr2PjJTnU71hgQ411aki1hnBGzlrOJu9Mn1r8T8Aiwwg6c9+e3GPKiZX0QdeCZTesy2CvI9ed2cAF3BL45ziEJtBKMcdwHImL//+xvl9YayhBhDjk9+pP8rsiZXCzBXNRJggP41spQ9g9FDo0O27bWkFbqtTuw7xzOQTjp63ssOfuWt9Xadfvr8eaQAxPXVf7TFDzTZZGfOMf1BYXQKSoNz8Cr3PEXy5LmDJ4qnQkTxhciTNylr9wzmz6ULgifeCBhADhdOQdq7RyGV2U1sWP+AgIAJPce9gCAkLt82Gckz2dNfjQV4pT75pbCYz8Vzv6MnGqLCRvPQuHGR+YlT9jh3d11p6crcei0enHIiQk+dtNMA2YW55Fq5agVc3+VkwSjjSJw3jHM+Nbr53Y/2BC7BN65pxBvzcOx9o2Gf985XabGZ0q21lhvx9si5w0ZEXOW6djmVAcwN+mpwBvJmZOJ8dG/7KwI3J2tmAJ52zmgEJ0n1jAnjHr7qvsNSy73Jduy2mJfByhyGDRy+nB8E3zMcPuMuqQxcrhglF0+8tI/ub+zYteosSs2nyS2xcvAE+Bem0UN5LdTcCV1fhP+Ouytm5duYYy9YsS9aUV1fYzIR+VXX6HIUdYA5/y7IzbwxuXHrKnxL4xM2q+l/7/vpwoSG5LQAAAABJRU5ErkJggg==;fontSize=24;" parent="23" vertex="1">
                    <mxGeometry x="28.5" y="42.5" width="48" height="48" as="geometry"/>
                </mxCell>
                <mxCell id="17" value="" style="shape=image;verticalLabelPosition=bottom;labelBackgroundColor=#ffffff;verticalAlign=top;aspect=fixed;imageAspect=0;image=data:image/svg+xml,PHN2ZyB4bWxucz0iaHR0cDovL3d3dy53My5vcmcvMjAwMC9zdmciIHdpZHRoPSI1MTIiIGhlaWdodD0iNTEyIiB2aWV3Qm94PSIwIDAgNTEyIDUxMiI+PGRlZnM+PGxpbmVhckdyYWRpZW50IGlkPSJhIiB4MT0iNDQ2LjkiIHkxPSI3Ni44NSIgeDI9IjQ3Ljk0IiB5Mj0iNDYxLjc3IiBncmFkaWVudFVuaXRzPSJ1c2VyU3BhY2VPblVzZSI+PHN0b3Agb2Zmc2V0PSIuMDUiIHN0b3AtY29sb3I9IiNmZmY0NGYiLz48c3RvcCBvZmZzZXQ9Ii4xMSIgc3RvcC1jb2xvcj0iI2ZmZTg0NyIvPjxzdG9wIG9mZnNldD0iLjIyIiBzdG9wLWNvbG9yPSIjZmZjODMwIi8+PHN0b3Agb2Zmc2V0PSIuMzciIHN0b3AtY29sb3I9IiNmZjk4MGUiLz48c3RvcCBvZmZzZXQ9Ii40IiBzdG9wLWNvbG9yPSIjZmY4YjE2Ii8+PHN0b3Agb2Zmc2V0PSIuNDYiIHN0b3AtY29sb3I9IiNmZjY3MmEiLz48c3RvcCBvZmZzZXQ9Ii41MyIgc3RvcC1jb2xvcj0iI2ZmMzY0NyIvPjxzdG9wIG9mZnNldD0iLjciIHN0b3AtY29sb3I9IiNlMzE1ODciLz48L2xpbmVhckdyYWRpZW50PjxyYWRpYWxHcmFkaWVudCBpZD0iYiIgY3g9IjQyOC40NiIgY3k9IjU1LjA2IiByPSI1MDEuMDEiIGdyYWRpZW50VW5pdHM9InVzZXJTcGFjZU9uVXNlIj48c3RvcCBvZmZzZXQ9Ii4xMyIgc3RvcC1jb2xvcj0iI2ZmYmQ0ZiIvPjxzdG9wIG9mZnNldD0iLjE5IiBzdG9wLWNvbG9yPSIjZmZhYzMxIi8+PHN0b3Agb2Zmc2V0PSIuMjUiIHN0b3AtY29sb3I9IiNmZjlkMTciLz48c3RvcCBvZmZzZXQ9Ii4yOCIgc3RvcC1jb2xvcj0iI2ZmOTgwZSIvPjxzdG9wIG9mZnNldD0iLjQiIHN0b3AtY29sb3I9IiNmZjU2M2IiLz48c3RvcCBvZmZzZXQ9Ii40NyIgc3RvcC1jb2xvcj0iI2ZmMzc1MCIvPjxzdG9wIG9mZnNldD0iLjcxIiBzdG9wLWNvbG9yPSIjZjUxNTZjIi8+PHN0b3Agb2Zmc2V0PSIuNzgiIHN0b3AtY29sb3I9IiNlYjA4NzgiLz48c3RvcCBvZmZzZXQ9Ii44NiIgc3RvcC1jb2xvcj0iI2U1MDA4MCIvPjwvcmFkaWFsR3JhZGllbnQ+PHJhZGlhbEdyYWRpZW50IGlkPSJjIiBjeD0iMjQ1LjM5IiBjeT0iMjU5Ljg4IiByPSI1MDEuMDEiIGdyYWRpZW50VW5pdHM9InVzZXJTcGFjZU9uVXNlIj48c3RvcCBvZmZzZXQ9Ii4zIiBzdG9wLWNvbG9yPSIjOTYwZTE4Ii8+PHN0b3Agb2Zmc2V0PSIuMzUiIHN0b3AtY29sb3I9IiNiMTE5MjciIHN0b3Atb3BhY2l0eT0iLjc0Ii8+PHN0b3Agb2Zmc2V0PSIuNDMiIHN0b3AtY29sb3I9IiNkYjI5M2QiIHN0b3Atb3BhY2l0eT0iLjM0Ii8+PHN0b3Agb2Zmc2V0PSIuNSIgc3RvcC1jb2xvcj0iI2Y1MzM0YiIgc3RvcC1vcGFjaXR5PSIuMDkiLz48c3RvcCBvZmZzZXQ9Ii41MyIgc3RvcC1jb2xvcj0iI2ZmMzc1MCIgc3RvcC1vcGFjaXR5PSIwIi8+PC9yYWRpYWxHcmFkaWVudD48cmFkaWFsR3JhZGllbnQgaWQ9ImQiIGN4PSIzMDUuOCIgY3k9Ii01OC42NCIgcj0iMzYyLjk2IiBncmFkaWVudFVuaXRzPSJ1c2VyU3BhY2VPblVzZSI+PHN0b3Agb2Zmc2V0PSIuMTMiIHN0b3AtY29sb3I9IiNmZmY0NGYiLz48c3RvcCBvZmZzZXQ9Ii4yNSIgc3RvcC1jb2xvcj0iI2ZmZGMzZSIvPjxzdG9wIG9mZnNldD0iLjUxIiBzdG9wLWNvbG9yPSIjZmY5ZDEyIi8+PHN0b3Agb2Zmc2V0PSIuNTMiIHN0b3AtY29sb3I9IiNmZjk4MGUiLz48L3JhZGlhbEdyYWRpZW50PjxyYWRpYWxHcmFkaWVudCBpZD0iZSIgY3g9IjE4OS45OCIgY3k9IjM5MC43NSIgcj0iMjM4LjU1IiBncmFkaWVudFVuaXRzPSJ1c2VyU3BhY2VPblVzZSI+PHN0b3Agb2Zmc2V0PSIuMzUiIHN0b3AtY29sb3I9IiMzYThlZTYiLz48c3RvcCBvZmZzZXQ9Ii40NyIgc3RvcC1jb2xvcj0iIzVjNzlmMCIvPjxzdG9wIG9mZnNldD0iLjY3IiBzdG9wLWNvbG9yPSIjOTA1OWZmIi8+PHN0b3Agb2Zmc2V0PSIxIiBzdG9wLWNvbG9yPSIjYzEzOWU2Ii8+PC9yYWRpYWxHcmFkaWVudD48cmFkaWFsR3JhZGllbnQgaWQ9ImYiIGN4PSIyNTIuMTYiIGN5PSIyMDEuMjUiIHI9IjEyNi40OCIgZ3JhZGllbnRUcmFuc2Zvcm09Im1hdHJpeCguOTcgLS4yNCAuMjggMS4xNCAtNDguMzYgMzEuNDMpIiBncmFkaWVudFVuaXRzPSJ1c2VyU3BhY2VPblVzZSI+PHN0b3Agb2Zmc2V0PSIuMjEiIHN0b3AtY29sb3I9IiM5MDU5ZmYiIHN0b3Atb3BhY2l0eT0iMCIvPjxzdG9wIG9mZnNldD0iLjI4IiBzdG9wLWNvbG9yPSIjOGM0ZmYzIiBzdG9wLW9wYWNpdHk9Ii4wNiIvPjxzdG9wIG9mZnNldD0iLjc1IiBzdG9wLWNvbG9yPSIjNzcxNmE4IiBzdG9wLW9wYWNpdHk9Ii40NSIvPjxzdG9wIG9mZnNldD0iLjk3IiBzdG9wLWNvbG9yPSIjNmUwMDhiIiBzdG9wLW9wYWNpdHk9Ii42Ii8+PC9yYWRpYWxHcmFkaWVudD48cmFkaWFsR3JhZGllbnQgaWQ9ImciIGN4PSIyMzkuMDYiIGN5PSIzNC41NiIgcj0iMTcxLjYyIiBncmFkaWVudFVuaXRzPSJ1c2VyU3BhY2VPblVzZSI+PHN0b3Agb2Zmc2V0PSIwIiBzdG9wLWNvbG9yPSIjZmZlMjI2Ii8+PHN0b3Agb2Zmc2V0PSIuMTIiIHN0b3AtY29sb3I9IiNmZmRiMjciLz48c3RvcCBvZmZzZXQ9Ii4zIiBzdG9wLWNvbG9yPSIjZmZjODJhIi8+PHN0b3Agb2Zmc2V0PSIuNSIgc3RvcC1jb2xvcj0iI2ZmYTkzMCIvPjxzdG9wIG9mZnNldD0iLjczIiBzdG9wLWNvbG9yPSIjZmY3ZTM3Ii8+PHN0b3Agb2Zmc2V0PSIuNzkiIHN0b3AtY29sb3I9IiNmZjcxMzkiLz48L3JhZGlhbEdyYWRpZW50PjxyYWRpYWxHcmFkaWVudCBpZD0iaCIgY3g9IjM3My45NiIgY3k9Ii03NC4yOSIgcj0iNzMyLjIxIiBncmFkaWVudFVuaXRzPSJ1c2VyU3BhY2VPblVzZSI+PHN0b3Agb2Zmc2V0PSIuMTEiIHN0b3AtY29sb3I9IiNmZmY0NGYiLz48c3RvcCBvZmZzZXQ9Ii40NiIgc3RvcC1jb2xvcj0iI2ZmOTgwZSIvPjxzdG9wIG9mZnNldD0iLjYyIiBzdG9wLWNvbG9yPSIjZmY1NjM0Ii8+PHN0b3Agb2Zmc2V0PSIuNzIiIHN0b3AtY29sb3I9IiNmZjM2NDciLz48c3RvcCBvZmZzZXQ9Ii45IiBzdG9wLWNvbG9yPSIjZTMxNTg3Ii8+PC9yYWRpYWxHcmFkaWVudD48cmFkaWFsR3JhZGllbnQgaWQ9ImkiIGN4PSIzMDQuNTkiIGN5PSI3LjA3IiByPSI1MzYuMzciIGdyYWRpZW50VHJhbnNmb3JtPSJtYXRyaXgoLjEgLjk5IC0uNjUgLjA3IDI3Ny4zMiAtMjk2LjMzKSIgZ3JhZGllbnRVbml0cz0idXNlclNwYWNlT25Vc2UiPjxzdG9wIG9mZnNldD0iMCIgc3RvcC1jb2xvcj0iI2ZmZjQ0ZiIvPjxzdG9wIG9mZnNldD0iLjA2IiBzdG9wLWNvbG9yPSIjZmZlODQ3Ii8+PHN0b3Agb2Zmc2V0PSIuMTciIHN0b3AtY29sb3I9IiNmZmM4MzAiLz48c3RvcCBvZmZzZXQ9Ii4zIiBzdG9wLWNvbG9yPSIjZmY5ODBlIi8+PHN0b3Agb2Zmc2V0PSIuMzYiIHN0b3AtY29sb3I9IiNmZjhiMTYiLz48c3RvcCBvZmZzZXQ9Ii40NSIgc3RvcC1jb2xvcj0iI2ZmNjcyYSIvPjxzdG9wIG9mZnNldD0iLjU3IiBzdG9wLWNvbG9yPSIjZmYzNjQ3Ii8+PHN0b3Agb2Zmc2V0PSIuNzQiIHN0b3AtY29sb3I9IiNlMzE1ODciLz48L3JhZGlhbEdyYWRpZW50PjxyYWRpYWxHcmFkaWVudCBpZD0iaiIgY3g9IjIzNS4wMiIgY3k9Ijk4LjEyIiByPSI0NTcuMTIiIGdyYWRpZW50VW5pdHM9InVzZXJTcGFjZU9uVXNlIj48c3RvcCBvZmZzZXQ9Ii4xNCIgc3RvcC1jb2xvcj0iI2ZmZjQ0ZiIvPjxzdG9wIG9mZnNldD0iLjQ4IiBzdG9wLWNvbG9yPSIjZmY5ODBlIi8+PHN0b3Agb2Zmc2V0PSIuNTkiIHN0b3AtY29sb3I9IiNmZjU2MzQiLz48c3RvcCBvZmZzZXQ9Ii42NiIgc3RvcC1jb2xvcj0iI2ZmMzY0NyIvPjxzdG9wIG9mZnNldD0iLjkiIHN0b3AtY29sb3I9IiNlMzE1ODciLz48L3JhZGlhbEdyYWRpZW50PjxyYWRpYWxHcmFkaWVudCBpZD0iayIgY3g9IjM1NS42OSIgY3k9IjEyNC44OCIgcj0iNTAwLjMyIiBncmFkaWVudFVuaXRzPSJ1c2VyU3BhY2VPblVzZSI+PHN0b3Agb2Zmc2V0PSIuMDkiIHN0b3AtY29sb3I9IiNmZmY0NGYiLz48c3RvcCBvZmZzZXQ9Ii4yMyIgc3RvcC1jb2xvcj0iI2ZmZTE0MSIvPjxzdG9wIG9mZnNldD0iLjUxIiBzdG9wLWNvbG9yPSIjZmZhZjFlIi8+PHN0b3Agb2Zmc2V0PSIuNjMiIHN0b3AtY29sb3I9IiNmZjk4MGUiLz48L3JhZGlhbEdyYWRpZW50PjxsaW5lYXJHcmFkaWVudCBpZD0ibCIgeDE9IjQ0Mi4xIiB5MT0iNzQuNzkiIHgyPSIxMDIuNjQiIHkyPSI0MTQuMjYiIGdyYWRpZW50VW5pdHM9InVzZXJTcGFjZU9uVXNlIj48c3RvcCBvZmZzZXQ9Ii4xNyIgc3RvcC1jb2xvcj0iI2ZmZjQ0ZiIgc3RvcC1vcGFjaXR5PSIuOCIvPjxzdG9wIG9mZnNldD0iLjI3IiBzdG9wLWNvbG9yPSIjZmZmNDRmIiBzdG9wLW9wYWNpdHk9Ii42MyIvPjxzdG9wIG9mZnNldD0iLjQ5IiBzdG9wLWNvbG9yPSIjZmZmNDRmIiBzdG9wLW9wYWNpdHk9Ii4yMiIvPjxzdG9wIG9mZnNldD0iLjYiIHN0b3AtY29sb3I9IiNmZmY0NGYiIHN0b3Atb3BhY2l0eT0iMCIvPjwvbGluZWFyR3JhZGllbnQ+PC9kZWZzPjxwYXRoIGQ9Ik00NzguNzEgMTY2LjM4Yy0xMC40NC0yNS4xMy0zMS42LTUyLjI2LTQ4LjIxLTYwLjgzIDEzLjUyIDI2LjUxIDIxLjM0IDUzLjEgMjQuMzMgNzIuOTQgMCAwIDAgLjE0LjA1LjRDNDI3LjcxIDExMS4xNSAzODEuNjMgODMuODMgMzQ0IDI0LjM2Yy0xLjkxLTMtMy44MS02LTUuNjctOS4yMS0xLjA1LTEuODEtMS45LTMuNDUtMi42NC01QTQzLjczIDQzLjczIDAgMCAxIDMzMi4xLjY4YS42My42MyAwIDAgMC0uNTQtLjY1Ljg2Ljg2IDAgMCAwLS40NSAwIC40Ny40NyAwIDAgMC0uMTEuMDdjLS4wNiAwLS4xMi4wNy0uMTguMDlsLjEtLjEzYy02MC4zNyAzNS4zNi04MC44NSAxMDAuNzctODIuNzMgMTMzLjVBMTIwLjI3IDEyMC4yNyAwIDAgMCAxODIgMTU5LjA1YTcxLjExIDcxLjExIDAgMCAwLTYuMjItNC43IDExMS4zOSAxMTEuMzkgMCAwIDEtLjY3LTU4Ljc0Yy0yNC42OSAxMS4yNS00My44OSAyOS01Ny44NSA0NC43MWgtLjExYy05LjUzLTEyLjA3LTguODYtNTEuODgtOC4zMi02MC4xOS0uMTEtLjUyLTcuMSAzLjYzLTggNC4yNmExNzQuNzQgMTc0Ljc0IDAgMCAwLTIzLjQ5IDIwLjEyIDIxMC4xOCAyMTAuMTggMCAwIDAtMjIuNDQgMjYuOTEgMjAyLjg2IDIwMi44NiAwIDAgMC0zMi4yNSA3Mi44MmMtLjExLjUyLS4yMSAxLjA2LS4zMiAxLjU5LS40NSAyLjExLTIuMDggMTIuNy0yLjM3IDE1di41M0EyMjkuMSAyMjkuMSAwIDAgMCAxNiAyNTQuNTJ2MS4yM2MwIDEzMi43MiAxMDcuNiAyNDAuMzIgMjQwLjMyIDI0MC4zMiAxMTguODcgMCAyMTcuNTYtODYuMyAyMzYuODktMTk5LjY2LjQtMy4wNy43My02LjE3IDEuMDktOS4yNyA0Ljc4LTQxLjIyLS41My04NC41NC0xNS41OS0xMjAuNzZ6bS0yNzcgMTg4LjEyYzEuMTIuNTMgMi4xOCAxLjEyIDMuMzMgMS42NGwuMTYuMWMtMS4xNS0uNTYtMi4zMi0xLjE0LTMuNDgtMS43NHptNTUtMTQ0Ljk1ek00NTQuOSAxNzl2LS4yMy4yNnoiIGZpbGw9InVybCgjYSkiLz48cGF0aCBkPSJNNDc4LjcxIDE2Ni4zOGMtMTAuNDQtMjUuMTMtMzEuNi01Mi4yNi00OC4yMS02MC44MyAxMy41MiAyNi41MSAyMS4zNCA1My4xIDI0LjMzIDcyLjk0di40OWMyMi42OCA2MS40OCAxMC4zMiAxMjQtNy40OCAxNjIuMi0yNy41NCA1OS4xLTk0LjIxIDExOS42OC0xOTguNTggMTE2LjczLTExMi42Ny0zLjItMjEyLTg2LjkxLTIzMC41NS0xOTYuNDYtMy4zOC0xNy4yOSAwLTI2LjA2IDEuNy00MC4wOS0yLjA3IDEwLjgxLTIuODYgMTMuOTQtMy44OSAzMy4xNnYxLjIzYzAgMTMyLjcyIDEwNy42IDI0MC4zMiAyNDAuMzIgMjQwLjMyIDExOC44NyAwIDIxNy41Ni04Ni4zIDIzNi44OS0xOTkuNjYuNC0zLjA3LjczLTYuMTcgMS4wOS05LjI3IDQuNzUtNDEuMjItLjU2LTg0LjU0LTE1LjYyLTEyMC43NnoiIGZpbGw9InVybCgjYikiLz48cGF0aCBkPSJNNDc4LjcxIDE2Ni4zOGMtMTAuNDQtMjUuMTMtMzEuNi01Mi4yNi00OC4yMS02MC44MyAxMy41MiAyNi41MSAyMS4zNCA1My4xIDI0LjMzIDcyLjk0di40OWMyMi42OCA2MS40OCAxMC4zMiAxMjQtNy40OCAxNjIuMi0yNy41NCA1OS4xLTk0LjIxIDExOS42OC0xOTguNTggMTE2LjczLTExMi42Ny0zLjItMjEyLTg2LjkxLTIzMC41NS0xOTYuNDYtMy4zOC0xNy4yOSAwLTI2LjA2IDEuNy00MC4wOS0yLjA3IDEwLjgxLTIuODYgMTMuOTQtMy44OSAzMy4xNnYxLjIzYzAgMTMyLjcyIDEwNy42IDI0MC4zMiAyNDAuMzIgMjQwLjMyIDExOC44NyAwIDIxNy41Ni04Ni4zIDIzNi44OS0xOTkuNjYuNC0zLjA3LjczLTYuMTcgMS4wOS05LjI3IDQuNzUtNDEuMjItLjU2LTg0LjU0LTE1LjYyLTEyMC43NnoiIGZpbGw9InVybCgjYykiLz48cGF0aCBkPSJNMzYxLjkyIDE5NC42MmMuNTMuMzcgMSAuNzQgMS41IDEuMTFhMTMwLjQ5IDEzMC40OSAwIDAgMC0yMi4zMi0yOS4xMkMyNjYuNCA5MS45MSAzMjEuNTIgNC42MyAzMzAuODEuMTlsLjEtLjEzYy02MC4zNyAzNS4zNi04MC44NSAxMDAuNzctODIuNzMgMTMzLjUgMi44LS4xOSA1LjU5LS40MyA4LjQ0LS40MyA0NS4wNSAwIDg0LjI5IDI0Ljc4IDEwNS4zIDYxLjQ5eiIgZmlsbD0idXJsKCNkKSIvPjxwYXRoIGQ9Ik0yNTYuNzcgMjA5LjU0Yy0uMzkgNi0yMS41MSAyNi42LTI4LjkgMjYuNi02OC4zNCAwLTc5LjQzIDQxLjM0LTc5LjQzIDQxLjM0IDMgMzQuODIgMjcuMjYgNjMuNDkgNTYuNjEgNzguNjYgMS4zNC42OSAyLjY5IDEuMzEgNCAxLjkzIDIuMzUgMSA0LjcxIDIgNy4wNiAyLjg5YTEwNi44OCAxMDYuODggMCAwIDAgMzEuMjcgNmMxMTkuNzggNS42MiAxNDMtMTQzLjIyIDU2LjU1LTE4Ni40NCAyMi4xMy0zLjg1IDQ1LjExIDUuMDYgNTcuOTQgMTQuMDctMjEtMzYuNzEtNjAuMjUtNjEuNDktMTA1LjMtNjEuNDktMi44NSAwLTUuNjQuMjQtOC40NC40M0ExMjAuMjcgMTIwLjI3IDAgMCAwIDE4MiAxNTkuMDVjMy42NyAzLjExIDcuODEgNy4yNSAxNi41MiAxNS44MyAxNi4zNCAxNi4xMiA1OC4xNiAzMi43MSA1OC4yNSAzNC42NnoiIGZpbGw9InVybCgjZSkiLz48cGF0aCBkPSJNMjU2Ljc3IDIwOS41NGMtLjM5IDYtMjEuNTEgMjYuNi0yOC45IDI2LjYtNjguMzQgMC03OS40MyA0MS4zNC03OS40MyA0MS4zNCAzIDM0LjgyIDI3LjI2IDYzLjQ5IDU2LjYxIDc4LjY2IDEuMzQuNjkgMi42OSAxLjMxIDQgMS45MyAyLjM1IDEgNC43MSAyIDcuMDYgMi44OWExMDYuODggMTA2Ljg4IDAgMCAwIDMxLjI3IDZjMTE5Ljc4IDUuNjIgMTQzLTE0My4yMiA1Ni41NS0xODYuNDQgMjIuMTMtMy44NSA0NS4xMSA1LjA2IDU3Ljk0IDE0LjA3LTIxLTM2LjcxLTYwLjI1LTYxLjQ5LTEwNS4zLTYxLjQ5LTIuODUgMC01LjY0LjI0LTguNDQuNDNBMTIwLjI3IDEyMC4yNyAwIDAgMCAxODIgMTU5LjA1YzMuNjcgMy4xMSA3LjgxIDcuMjUgMTYuNTIgMTUuODMgMTYuMzQgMTYuMTIgNTguMTYgMzIuNzEgNTguMjUgMzQuNjZ6IiBmaWxsPSJ1cmwoI2YpIi8+PHBhdGggZD0iTTE3MC44MyAxNTEuMDZjMS45NSAxLjI2IDMuNTUgMi4zMiA1IDMuMjlhMTExLjM5IDExMS4zOSAwIDAgMS0uNjctNTguNzRjLTI0LjY5IDExLjI1LTQzLjg5IDI5LTU3Ljg1IDQ0LjcxIDEuMTMtLjAzIDM1Ljk5LS42NiA1My41MiAxMC43NHoiIGZpbGw9InVybCgjZykiLz48cGF0aCBkPSJNMTguMjIgMjYxLjQ1QzM2Ljc3IDM3MSAxMzYuMSA0NTQuNzEgMjQ4Ljg1IDQ1Ny45MWMxMDQuMzcgMi45NSAxNzEtNTcuNjMgMTk4LjU4LTExNi43MyAxNy44LTM4LjIxIDMwLjE2LTEwMC43MiA3LjQ4LTE2Mi4ydi0uNDZjMCAuMDYgMCAuMTQuMDUuNCA4LjUyIDU1LjY3LTE5Ljc5IDEwOS42LTY0LjA1IDE0Ni4wN2E3LjMgNy4zIDAgMCAwLS4xMy4zMWMtODYuMjUgNzAuMjMtMTY4Ljc4IDQyLjM3LTE4NS40OSAzMS0xLjE2LS41Ni0yLjMzLTEuMTQtMy40OS0xLjc0LTUwLjI5LTI0LTcxLjA2LTY5Ljg1LTY2LjYxLTEwOS4xNC00Mi40NSAwLTU2LjkzLTM1LjgyLTU2LjkzLTM1LjgyczM4LjEyLTI3LjE4IDg4LjM2LTMuNTRjNDYuNTMgMjEuOSA5MC4yMyAzLjU1IDkwLjIzIDMuNTQtLjA5LTEuOTUtNDEuOTEtMTguNTktNTguMjItMzQuNjYtOC43MS04LjU4LTEyLjg1LTEyLjcyLTE2LjUyLTE1LjgzYTcxLjExIDcxLjExIDAgMCAwLTYuMjItNC43Yy0xLjQzLTEtMy0yLTUtMy4yOS0xNy41My0xMS40LTUyLjM5LTEwLjc3LTUzLjU0LTEwLjc0aC0uMTFjLTkuNTMtMTIuMDctOC44Ni01MS44OC04LjMyLTYwLjE5LS4xMS0uNTItNy4xIDMuNjMtOCA0LjI2YTE3NC43NCAxNzQuNzQgMCAwIDAtMjMuNDkgMjAuMTIgMjEwLjE4IDIxMC4xOCAwIDAgMC0yMi40NCAyNi45MSAyMDIuODYgMjAyLjg2IDAgMCAwLTMyLjI1IDcyLjgyYy0uMTkuNDYtOC43NCAzNy43OS00LjUyIDU3LjE1eiIgZmlsbD0idXJsKCNoKSIvPjxwYXRoIGQ9Ik0zNDEuMSAxNjYuNjFhMTMwLjQ5IDEzMC40OSAwIDAgMSAyMi4zMiAyOS4xMiA0Ni4zNiA0Ni4zNiAwIDAgMSAzLjYgM0M0MjEuNSAyNDguODkgMzkzIDMxOS45IDM5MC44MyAzMjVjNDQuMjYtMzYuNDcgNzIuNTctOTAuNCA2NC4wNS0xNDYuMDctMjcuMTctNjcuNzgtNzMuMjUtOTUuMS0xMTAuODgtMTU0LjU3LTEuOTEtMy0zLjgxLTYtNS42Ny05LjIxLTEuMDUtMS44MS0xLjktMy40NS0yLjY0LTVBNDMuNzMgNDMuNzMgMCAwIDEgMzMyLjEuNjhhLjYzLjYzIDAgMCAwLS41NC0uNjUuODYuODYgMCAwIDAtLjQ1IDAgLjQ3LjQ3IDAgMCAwLS4xMS4wN2MtLjA2IDAtLjEyLjA3LS4xOC4wOS05LjMgNC40NC02NC40MiA5MS43MiAxMC4yOCAxNjYuNDJ6IiBmaWxsPSJ1cmwoI2kpIi8+PHBhdGggZD0iTTM2NyAxOTguNjhhNDYuMzYgNDYuMzYgMCAwIDAtMy42LTNjLS40OS0uMzctMS0uNzQtMS41LTEuMTEtMTIuODMtOS0zNS44MS0xNy45Mi01Ny45NC0xNC4wNyA4Ni40NCA0My4yMiA2My4yMyAxOTIuMDYtNTYuNTUgMTg2LjQ0YTEwNi44OCAxMDYuODggMCAwIDEtMzEuMjctNmMtMi4zNS0uODgtNC43MS0xLjg1LTcuMDYtMi44OS0xLjM2LS42Mi0yLjcxLTEuMjQtNC0xLjkzbC4xNi4xYzE2LjcxIDExLjQgOTkuMjQgMzkuMjYgMTg1LjQ5LTMxIDAgMCAuMDUtLjEzLjEzLS4zMUMzOTMgMzE5LjkgNDIxLjUgMjQ4Ljg5IDM2NyAxOTguNjh6IiBmaWxsPSJ1cmwoI2opIi8+PHBhdGggZD0iTTE0OC40NCAyNzcuNDhzMTEuMDktNDEuMzQgNzkuNDMtNDEuMzRjNy4zOSAwIDI4LjUxLTIwLjYyIDI4LjktMjYuNnMtNDMuNyAxOC4zNi05MC4yMy0zLjU0Yy01MC4yNC0yMy42NC04OC4zNiAzLjU0LTg4LjM2IDMuNTRzMTQuNDggMzUuODIgNTYuOTMgMzUuODJjLTQuNDUgMzkuMjkgMTYuMzIgODUuMSA2Ni42MSAxMDkuMTQgMS4xMi41MyAyLjE4IDEuMTIgMy4zMyAxLjY0LTI5LjM1LTE1LjE0LTUzLjU4LTQzLjg0LTU2LjYxLTc4LjY2eiIgZmlsbD0idXJsKCNrKSIvPjxwYXRoIGQ9Ik00NzguNzEgMTY2LjM4Yy0xMC40NC0yNS4xMy0zMS42LTUyLjI2LTQ4LjIxLTYwLjgzIDEzLjUyIDI2LjUxIDIxLjM0IDUzLjEgMjQuMzMgNzIuOTQgMCAwIDAgLjE0LjA1LjRDNDI3LjcxIDExMS4xNSAzODEuNjMgODMuODMgMzQ0IDI0LjM2Yy0xLjkxLTMtMy44MS02LTUuNjctOS4yMS0xLjA1LTEuODEtMS45LTMuNDUtMi42NC01QTQzLjczIDQzLjczIDAgMCAxIDMzMi4xLjY4YS42My42MyAwIDAgMC0uNTQtLjY1Ljg2Ljg2IDAgMCAwLS40NSAwIC40Ny40NyAwIDAgMC0uMTEuMDdjLS4wNiAwLS4xMi4wNy0uMTguMDlsLjEtLjEzYy02MC4zNyAzNS4zNi04MC44NSAxMDAuNzctODIuNzMgMTMzLjUgMi44LS4xOSA1LjU5LS40MyA4LjQ0LS40MyA0NS4wNSAwIDg0LjI5IDI0Ljc4IDEwNS4zIDYxLjQ5LTEyLjgzLTktMzUuODEtMTcuOTItNTcuOTQtMTQuMDcgODYuNDQgNDMuMjIgNjMuMjMgMTkyLjA2LTU2LjU1IDE4Ni40NGExMDYuODggMTA2Ljg4IDAgMCAxLTMxLjI3LTZjLTIuMzUtLjg4LTQuNzEtMS44NS03LjA2LTIuODktMS4zNi0uNjItMi43MS0xLjI0LTQtMS45M2wuMTYuMWMtMS4xNi0uNTYtMi4zMy0xLjE0LTMuNDktMS43NCAxLjEyLjUzIDIuMTggMS4xMiAzLjMzIDEuNjQtMjkuNDEtMTUuMTctNTMuNjQtNDMuODctNTYuNjctNzguNjkgMCAwIDExLjA5LTQxLjM0IDc5LjQzLTQxLjM0IDcuMzkgMCAyOC41MS0yMC42MiAyOC45LTI2LjYtLjA5LTEuOTUtNDEuOTEtMTguNTktNTguMjItMzQuNjYtOC43MS04LjU4LTEyLjg1LTEyLjcyLTE2LjUyLTE1LjgzYTcxLjExIDcxLjExIDAgMCAwLTYuMjItNC43IDExMS4zOSAxMTEuMzkgMCAwIDEtLjY3LTU4Ljc0Yy0yNC42OSAxMS4yNS00My44OSAyOS01Ny44NSA0NC43MWgtLjExYy05LjUzLTEyLjA3LTguODYtNTEuODgtOC4zMi02MC4xOS0uMTEtLjUyLTcuMSAzLjYzLTggNC4yNmExNzQuNzQgMTc0Ljc0IDAgMCAwLTIzLjQ5IDIwLjEyIDIxMC4xOCAyMTAuMTggMCAwIDAtMjIuNDQgMjYuOTEgMjAyLjg2IDIwMi44NiAwIDAgMC0zMi4yNSA3Mi44MmMtLjExLjUyLS4yMSAxLjA2LS4zMiAxLjU5LS40NSAyLjExLTIuNDkgMTIuODUtMi43NyAxNS4xNSAwIC4xOCAwLS4xNyAwIDBBMjc4Ljg0IDI3OC44NCAwIDAgMCAxNiAyNTQuNTJ2MS4yM2MwIDEzMi43MiAxMDcuNiAyNDAuMzIgMjQwLjMyIDI0MC4zMiAxMTguODcgMCAyMTcuNTYtODYuMyAyMzYuODktMTk5LjY2LjQtMy4wNy43My02LjE3IDEuMDktOS4yNyA0Ljc4LTQxLjIyLS41My04NC41NC0xNS41OS0xMjAuNzZ6bS0yMy44NCAxMi4zNHYuMjZ6IiBmaWxsPSJ1cmwoI2wpIi8+PC9zdmc+;fontSize=24;" parent="23" vertex="1">
                    <mxGeometry x="28.5" y="109.50000000000009" width="48" height="48" as="geometry"/>
                </mxCell>
                <mxCell id="18" value="" style="shape=image;verticalLabelPosition=bottom;labelBackgroundColor=#ffffff;verticalAlign=top;aspect=fixed;imageAspect=0;image=data:image/svg+xml,PHN2ZyB4bWxucz0iaHR0cDovL3d3dy53My5vcmcvMjAwMC9zdmciIHZpZXdCb3g9IjAgMCA1MTAgNTUyIiB2ZXJzaW9uPSIxLjEiPgogICAgPGRlZnM+CiAgICAgICAgPGxpbmVhckdyYWRpZW50IHgxPSI1MCUiIHkxPSIwJSIgeDI9IjUwJSIgeTI9IjEwMCUiIGlkPSJibHVlcyI+CiAgICAgICAgICAgIDxzdG9wIHN0b3AtY29sb3I9IiMzNEFBREMiIG9mZnNldD0iMCUiLz4KICAgICAgICAgICAgPHN0b3Agc3RvcC1jb2xvcj0iIzAwN0FGRiIgb2Zmc2V0PSIxMDAlIi8+CiAgICAgICAgPC9saW5lYXJHcmFkaWVudD4KICAgICAgICA8ZmlsdGVyIHg9Ii01MCUiIHk9Ii01MCUiIHdpZHRoPSIyMDAlIiBoZWlnaHQ9IjIwMCUiIGlkPSJzaGFkb3ciPgogICAgICAgICAgICA8ZmVPZmZzZXQgZHg9IjAiIGR5PSI1IiBpbj0iU291cmNlQWxwaGEiIHJlc3VsdD0ib2Zmc2V0Ii8+CiAgICAgICAgICAgIDxmZUdhdXNzaWFuQmx1ciBzdGREZXZpYXRpb249IjIuNSIgaW49Im9mZnNldCIgcmVzdWx0PSJibHVyIi8+CiAgICAgICAgICAgIDxmZUNvbG9yTWF0cml4IHZhbHVlcz0iMCAwIDAgMCAwICAwIDAgMCAwIDAgIDAgMCAwIDAgMCAgMCAwIDAgMC4wNyAwIiBpbj0iYmx1ciIgdHlwZT0ibWF0cml4IiByZXN1bHQ9Im1hdHJpeCIvPgogICAgICAgICAgICA8ZmVNZXJnZT4KICAgICAgICAgICAgICAgIDxmZU1lcmdlTm9kZSBpbj0ibWF0cml4Ii8+CiAgICAgICAgICAgICAgICA8ZmVNZXJnZU5vZGUgaW49IlNvdXJjZUdyYXBoaWMiLz4KICAgICAgICAgICAgPC9mZU1lcmdlPgogICAgICAgIDwvZmlsdGVyPgogICAgPC9kZWZzPgogICAgPHBhdGggZD0iTSA0NzcuODYxMTExIDMwNi45MjgxOSBDIDUxMi4wNDYyOTYgMzMzLjU4NzUwNyA1MTIuMDQ2Mjk2IDM3Ny40NDYzODIgNDc3Ljg2MTExMSA0MDQuMzIwNjkzIEwgMzE3LjAxNTQzMiA1MzAuNzM3NDUyIEMgMjgyLjgzMDI0NyA1NTcuMzk2NzY4IDIyNy4xNjk3NTMgNTU3LjM5Njc2OCAxOTIuOTg0NTY4IDUzMC43Mzc0NTIgTCAzMi4xMzg4ODg5IDQwNC41MzU2ODggQyAtMi4wNDYyOTYzIDM3Ny44NzYzNzEgLTIuMDQ2Mjk2MyAzMzQuMDE3NDk2IDMyLjEzODg4ODkgMzA3LjE0MzE4NSBMIDE5Mi45ODQ1NjggMTgwLjcyNjQyNiBDIDIyNy4xNjk3NTMgMTU0LjA2NzExIDI4Mi44MzAyNDcgMTU0LjA2NzExIDMxNy4wMTU0MzIgMTgwLjcyNjQyNiBMIDQ3Ny44NjExMTEgMzA2LjkyODE5IFoiIGZpbGw9InJnYigyNTUsIDE1NywgMCkiIGlkPSJiYXNlIi8+CiAgICA8cGF0aCBkPSJNIDE5My4zNzAyMzkgNDUxLjgzMTc3MyBMIDMxLjgxMjIyMzIgMzI0Ljg2MDA1OSBDIDE1LjUyNDM1NzggMzEyLjA5Nzk5NiA2LjUgMjk1LjAwOTgwOSA2LjUgMjc2Ljg0MDA5MiBDIDYuNSAyNTguNjcwMzc1IDE1LjUyNDM1NzggMjQxLjU4MjE4OSAzMS44MTIyMjMyIDIyOC44MjAxMjUgTCAxOTMuMzcwMjM5IDEwMS42MzIxMDUgQyAyMDkuNjU4MTA1IDg4Ljg3MDA0MjIgMjMxLjY2ODczMyA4MS43MzE5MzkxIDI1NSA4MS43MzE5MzkxIEMgMjc4LjMzMTI2NyA4MS43MzE5MzkxIDMwMC4xMjE3ODkgODguODcwMDQyMiAzMTYuNjI5NzYxIDEwMS42MzIxMDUgTCA0NzguMTg3Nzc3IDIyOC42MDM4MTkgQyA0OTQuNDc1NjQyIDI0MS4zNjU4ODIgNTAzLjUgMjU4LjQ1NDA2OSA1MDMuNSAyNzYuNjIzNzg2IEMgNTAzLjUgMjk0Ljc5MzUwMyA0OTQuNDc1NjQyIDMxMS44ODE2ODkgNDc4LjE4Nzc3NyAzMjQuNjQzNzUzIEwgMzE2LjYyOTc2MSA0NTEuNjE1NDY3IEMgMzAwLjEyMTc4OSA0NjQuNTkzODM2IDI3OC4zMzEyNjcgNDcxLjczMTkzOSAyNTUgNDcxLjczMTkzOSBDIDIzMS42Njg3MzMgNDcxLjczMTkzOSAyMDkuODc4MjExIDQ2NC41OTM4MzYgMTkzLjM3MDIzOSA0NTEuODMxNzczIFoiIGZpbGw9InJnYmEoMCwgMCwgMCwgMC4xKSIgZmlsdGVyPSJ1cmwoI3NoYWRvdykiIGlkPSJtaWQtc2hhZG93Ii8+CiAgICA8cGF0aCBkPSJNIDE5My4zNzAyMzkgNDUxLjgzMTc3MyBMIDMxLjgxMjIyMzIgMzI0Ljg2MDA1OSBDIDE1LjUyNDM1NzggMzEyLjA5Nzk5NiA2LjUgMjk1LjAwOTgwOSA2LjUgMjc2Ljg0MDA5MiBDIDYuNSAyNTguNjcwMzc1IDE1LjUyNDM1NzggMjQxLjU4MjE4OSAzMS44MTIyMjMyIDIyOC44MjAxMjUgTCAxOTMuMzcwMjM5IDEwMS42MzIxMDUgQyAyMDkuNjU4MTA1IDg4Ljg3MDA0MjIgMjMxLjY2ODczMyA4MS43MzE5MzkxIDI1NSA4MS43MzE5MzkxIEMgMjc4LjMzMTI2NyA4MS43MzE5MzkxIDMwMC4xMjE3ODkgODguODcwMDQyMiAzMTYuNjI5NzYxIDEwMS42MzIxMDUgTCA0NzguMTg3Nzc3IDIyOC42MDM4MTkgQyA0OTQuNDc1NjQyIDI0MS4zNjU4ODIgNTAzLjUgMjU4LjQ1NDA2OSA1MDMuNSAyNzYuNjIzNzg2IEMgNTAzLjUgMjk0Ljc5MzUwMyA0OTQuNDc1NjQyIDMxMS44ODE2ODkgNDc4LjE4Nzc3NyAzMjQuNjQzNzUzIEwgMzE2LjYyOTc2MSA0NTEuNjE1NDY3IEMgMzAwLjEyMTc4OSA0NjQuNTkzODM2IDI3OC4zMzEyNjcgNDcxLjczMTkzOSAyNTUgNDcxLjczMTkzOSBDIDIzMS42Njg3MzMgNDcxLjczMTkzOSAyMDkuODc4MjExIDQ2NC41OTM4MzYgMTkzLjM3MDIzOSA0NTEuODMxNzczIFoiIGZpbGw9InJnYigyNTUsIDIwNCwgMCkiIGlkPSJtaWQiLz4KICAgIDxwYXRoIGQ9Ik0gMTkzLjM3MDIzOSAzNzEuODMxNzczIEwgMzEuODEyMjIzMiAyNDQuODYwMDU5IEMgMTUuNTI0MzU3OCAyMzIuMDk3OTk2IDYuNSAyMTUuMDA5ODA5IDYuNSAxOTYuODQwMDkyIEMgNi41IDE3OC42NzAzNzUgMTUuNTI0MzU3OCAxNjEuNTgyMTg5IDMxLjgxMjIyMzIgMTQ4LjgyMDEyNSBMIDE5My4zNzAyMzkgMjEuNjMyMTA1NSBDIDIwOS42NTgxMDUgOC44NzAwNDIyMiAyMzEuNjY4NzMzIDEuNzMxOTM5MDYgMjU1IDEuNzMxOTM5MDYgQyAyNzguMzMxMjY3IDEuNzMxOTM5MDYgMzAwLjEyMTc4OSA4Ljg3MDA0MjIyIDMxNi42Mjk3NjEgMjEuNjMyMTA1NSBMIDQ3OC4xODc3NzcgMTQ4LjYwMzgxOSBDIDQ5NC40NzU2NDIgMTYxLjM2NTg4MiA1MDMuNSAxNzguNDU0MDY5IDUwMy41IDE5Ni42MjM3ODYgQyA1MDMuNSAyMTQuNzkzNTAzIDQ5NC40NzU2NDIgMjMxLjg4MTY4OSA0NzguMTg3Nzc3IDI0NC42NDM3NTMgTCAzMTYuNjI5NzYxIDM3MS42MTU0NjcgQyAzMDAuMTIxNzg5IDM4NC41OTM4MzYgMjc4LjMzMTI2NyAzOTEuNzMxOTM5IDI1NSAzOTEuNzMxOTM5IEMgMjMxLjY2ODczMyAzOTEuNzMxOTM5IDIwOS44NzgyMTEgMzg0LjU5MzgzNiAxOTMuMzcwMjM5IDM3MS44MzE3NzMgWiIgZmlsbD0icmdiYSgwLCAwLCAwLCAwLjEpIiBmaWx0ZXI9InVybCgjc2hhZG93KSIgaWQ9InRvcC1zaGFkb3ciLz4KICAgIDxwYXRoIGQ9Ik0gMTkzLjM3MDIzOSAzNzEuODMxNzczIEwgMzEuODEyMjIzMiAyNDQuODYwMDU5IEMgMTUuNTI0MzU3OCAyMzIuMDk3OTk2IDYuNSAyMTUuMDA5ODA5IDYuNSAxOTYuODQwMDkyIEMgNi41IDE3OC42NzAzNzUgMTUuNTI0MzU3OCAxNjEuNTgyMTg5IDMxLjgxMjIyMzIgMTQ4LjgyMDEyNSBMIDE5My4zNzAyMzkgMjEuNjMyMTA1NSBDIDIwOS42NTgxMDUgOC44NzAwNDIyMiAyMzEuNjY4NzMzIDEuNzMxOTM5MDYgMjU1IDEuNzMxOTM5MDYgQyAyNzguMzMxMjY3IDEuNzMxOTM5MDYgMzAwLjEyMTc4OSA4Ljg3MDA0MjIyIDMxNi42Mjk3NjEgMjEuNjMyMTA1NSBMIDQ3OC4xODc3NzcgMTQ4LjYwMzgxOSBDIDQ5NC40NzU2NDIgMTYxLjM2NTg4MiA1MDMuNSAxNzguNDU0MDY5IDUwMy41IDE5Ni42MjM3ODYgQyA1MDMuNSAyMTQuNzkzNTAzIDQ5NC40NzU2NDIgMjMxLjg4MTY4OSA0NzguMTg3Nzc3IDI0NC42NDM3NTMgTCAzMTYuNjI5NzYxIDM3MS42MTU0NjcgQyAzMDAuMTIxNzg5IDM4NC41OTM4MzYgMjc4LjMzMTI2NyAzOTEuNzMxOTM5IDI1NSAzOTEuNzMxOTM5IEMgMjMxLjY2ODczMyAzOTEuNzMxOTM5IDIwOS44NzgyMTEgMzg0LjU5MzgzNiAxOTMuMzcwMjM5IDM3MS44MzE3NzMgWiIgZmlsbD0idXJsKCNibHVlcykiIGlkPSJ0b3AiLz4KICAgIDxwYXRoIGQ9Ik0gMjU1LjU1Nzc5NiAzMTguNTIzNDM4IEwgMjU1LjU1Nzc5NiAzMTguNTIzNDM4IEMgMzM4LjExMzI1MSAzMTguNTIzNDM4IDQwNS4wMzc2NyAyNjMuODE4MjMgNDA1LjAzNzY3IDE5Ni4zMzU5MzggQyA0MDUuMDM3NjcgMTI4Ljg1MzY0NSAzMzguMTEzMjUxIDc0LjE0ODQzNzUgMjU1LjU1Nzc5NiA3NC4xNDg0Mzc1IEMgMTczLjAwMjM0MSA3NC4xNDg0Mzc1IDEwNi4wNzc5MjIgMTI4Ljg1MzY0NSAxMDYuMDc3OTIyIDE5Ni4zMzU5MzggQyAxMDYuMDc3OTIyIDI2My44MTgyMyAxNzMuMDAyMzQxIDMxOC41MjM0MzggMjU1LjU1Nzc5NiAzMTguNTIzNDM4IEwgMjU1LjU1Nzc5NiAzMTguNTIzNDM4IFogTSAyNTUuNTU3Nzk2IDMzMS4xMDE1NjMgTCAyNTUuNTU3Nzk2IDMzMS4xMDE1NjMgQyAxNjQuNTAzOTg1IDMzMS4xMDE1NjMgOTAuNjkwMjg3OSAyNzAuNzY0OTM3IDkwLjY5MDI4NzkgMTk2LjMzNTkzOCBDIDkwLjY5MDI4NzkgMTIxLjkwNjkzOCAxNjQuNTAzOTg1IDYxLjU3MDMxMjUgMjU1LjU1Nzc5NiA2MS41NzAzMTI1IEMgMzQ2LjYxMTYwNiA2MS41NzAzMTI1IDQyMC40MjUzMDQgMTIxLjkwNjkzOCA0MjAuNDI1MzA0IDE5Ni4zMzU5MzggQyA0MjAuNDI1MzA0IDI3MC43NjQ5MzcgMzQ2LjYxMTYwNiAzMzEuMTAxNTYzIDI1NS41NTc3OTYgMzMxLjEwMTU2MyBMIDI1NS41NTc3OTYgMzMxLjEwMTU2MyBaIiBmaWxsPSJ3aGl0ZSIgaWQ9InJpbmciLz4KICAgIDxwYXRoIGQ9Ik0gMjY2LjU3NTYwNSAyNDguMTk5MzgzIEMgMjc0LjgzOTM2MSAyNDcuMTE2OTY0IDI4Mi44OTM5NDMgMjQ0LjgxMzQyMSAyOTAuMjY3Mzk1IDI0MS4yODg3NTUgTCAzMzcuMzIxMjkgMjYwLjYyOTk5MiBMIDMxMi42NzQwMTIgMjIzLjcwNTgxMiBDIDMyNS42Mzg2NyAyMDcuMDA0NzM2IDMyNS42Mzg2NyAxODUuODUwNTYxIDMxMi42NzQwMTIgMTY5LjE0OTQ4NSBMIDMzNy4zMjEyOSAxMzIuMjI1MzA1IEwgMjkyLjk3NDg2OCAxNTAuNDUzNjUgTCAyOTEuNzAwMDczIDE2OS45NTI5NDIgQyAzMDkuODI5MTY0IDE4NS4xNTcyODkgMzA5LjM2NTg0NiAyMDkuMTY5MDY4IDI5MC41Mjc4OTMgMjIzLjg0NzE2OCBDIDI4NS43MjEwNjggMjI3LjY5MTUyOSAyODAuMjAxNjYgMjMwLjM4OTUyNyAyNzQuNDA1MTUxIDIzMi4zMDYwOTEgTCAyNjYuNTc1NjA1IDI0OC4xOTkzODMgWiBNIDI0NC41Nzk3NzYgMTQ0LjYyNDE0NiBDIDIzMC45MzExNTIgMTQ2LjM5ODY4MiAyMjAuNzAxMjkzIDE1MS41NjU2NzUgMjIwLjcwMTI5MyAxNTEuNTY1Njc1IEwgMTczLjY5MDI4OCAxMzIuMjI1MzA1IEwgMTk4LjMzNzU2NiAxNjkuMTQ5NDg1IEMgMTg1LjM3MjkwNyAxODUuODUwNTYxIDE4NS4zNzI5MDcgMjA3LjAwNDczNiAxOTguMzM3NTY2IDIyMy43MDU4MTIgTCAxNzMuNjkwMjg4IDI2MC42Mjk5OTIgTCAyMTkuMjQ4NzM2IDI0MS45MDM0NSBMIDIyMC4yMTg5MzIgMjIzLjY0MDU2NSBDIDIwMS4xNjE4MDQgMjA4LjQ4MDcxNCAyMDEuMzE0MDI1IDE4NC4yMjc5NjcgMjIwLjUyOTQxOSAxNjkuMDAyMzE5IEMgMjI0Ljk5OTk5OSAxNjUuMDAwMDAxIDIzNS4xMDU4OTUgMTYwLjc2Mjc1NyAyMzYuNjIyNDk4IDE2MC41MzczNTQgQyAyMzYuNjIyNDk3IDE2MC41MzczNTQgMjQ0LjU3OTc3NiAxNDQuNjI0MTQ2IDI0NC41Nzk3NzYgMTQ0LjYyNDE0NiBaIiBmaWxsPSJyZ2IoMTQwLCAyMDAsIDI0NikiIGlkPSJyb3NldHRlIi8+CiAgICA8cGF0aCBkPSJNIDIzMi45NDQzNzggMTkyLjMwNDU2MyBMIDIyNi42ODI2MTcgMzAzLjMwMjA2MyBMIDI3Ny4zODkwNTMgMjAwLjM1ODcgTCAyODQuNjQ5OTc4IDg5LjU3MDMxMjUgTCAyMzIuOTQ0Mzc4IDE5Mi4zMDQ1NjMgWiBNIDIzMi4yODkyMTUgMjgxLjk2ODU1OCBMIDI3Mi45MDQyMDggMTk5LjU2MzQ1OCBMIDIzNy4zMTI5MjUgMTkzLjA2OTQzOSBMIDIzMi4yODkyMTUgMjgxLjk2ODU1OCBaIiBmaWxsPSJ3aGl0ZSIgZmlsbC1ydWxlPSJldmVub2RkIiBpZD0ibmVlZGxlIi8+Cjwvc3ZnPg==;fontSize=24;" parent="23" vertex="1">
                    <mxGeometry x="28.5" y="177.5" width="48" height="52" as="geometry"/>
                </mxCell>
                <mxCell id="31" value="" style="swimlane;startSize=0;rounded=1;labelBackgroundColor=none;fontFamily=Times New Roman;fontSize=24;fontColor=default;" parent="1" vertex="1">
                    <mxGeometry x="699" y="63" width="569" height="314" as="geometry"/>
                </mxCell>
                <mxCell id="27" value="Context" style="rounded=0;whiteSpace=wrap;html=1;labelBackgroundColor=none;fontFamily=Times New Roman;fontSize=24;fontColor=default;verticalAlign=top;align=left;" parent="31" vertex="1">
                    <mxGeometry x="20" y="24" width="257" height="260" as="geometry"/>
                </mxCell>
                <mxCell id="26" value="Page&lt;br style=&quot;font-size: 24px&quot;&gt;&lt;font style=&quot;font-size: 14px&quot;&gt;Page Action / Element Action&lt;/font&gt;" style="rounded=0;whiteSpace=wrap;html=1;labelBackgroundColor=none;fontFamily=Times New Roman;fontColor=default;verticalAlign=top;fontSize=24;" parent="31" vertex="1">
                    <mxGeometry x="56" y="82.00000000000003" width="191" height="76" as="geometry"/>
                </mxCell>
                <mxCell id="29" value="Page&lt;br style=&quot;font-size: 24px&quot;&gt;&lt;font style=&quot;font-size: 14px&quot;&gt;Page Action / Element Action&lt;/font&gt;" style="rounded=0;whiteSpace=wrap;html=1;labelBackgroundColor=none;fontFamily=Times New Roman;fontColor=default;verticalAlign=top;fontSize=24;" parent="31" vertex="1">
                    <mxGeometry x="56" y="176" width="191" height="76" as="geometry"/>
                </mxCell>
                <mxCell id="32" value="Context" style="rounded=0;whiteSpace=wrap;html=1;labelBackgroundColor=none;fontFamily=Times New Roman;fontSize=24;fontColor=default;verticalAlign=top;align=left;" parent="31" vertex="1">
                    <mxGeometry x="292" y="23" width="257" height="260" as="geometry"/>
                </mxCell>
                <mxCell id="33" value="Page&lt;br style=&quot;font-size: 24px&quot;&gt;&lt;font style=&quot;font-size: 14px&quot;&gt;Page Action / Element Action&lt;/font&gt;" style="rounded=0;whiteSpace=wrap;html=1;labelBackgroundColor=none;fontFamily=Times New Roman;fontColor=default;verticalAlign=top;fontSize=24;" parent="31" vertex="1">
                    <mxGeometry x="328" y="81.00000000000003" width="191" height="76" as="geometry"/>
                </mxCell>
                <mxCell id="34" value="Page&lt;br style=&quot;font-size: 24px&quot;&gt;&lt;font style=&quot;font-size: 14px&quot;&gt;Page Action / Element Action&lt;/font&gt;" style="rounded=0;whiteSpace=wrap;html=1;labelBackgroundColor=none;fontFamily=Times New Roman;fontColor=default;verticalAlign=top;fontSize=24;" parent="31" vertex="1">
                    <mxGeometry x="328" y="175" width="191" height="76" as="geometry"/>
                </mxCell>
                <mxCell id="37" value="启动" style="text;html=1;align=center;verticalAlign=middle;resizable=0;points=[];autosize=1;strokeColor=none;fillColor=none;fontSize=14;fontFamily=Times New Roman;fontColor=default;" parent="1" vertex="1">
                    <mxGeometry x="457.5" y="227" width="38" height="21" as="geometry"/>
                </mxCell>
                <mxCell id="38" value="playwright" style="text;html=1;align=center;verticalAlign=middle;resizable=0;points=[];autosize=1;strokeColor=none;fillColor=none;fontSize=14;fontFamily=Times New Roman;fontColor=default;" parent="1" vertex="1">
                    <mxGeometry x="350" y="141" width="71" height="21" as="geometry"/>
                </mxCell>
                <mxCell id="40" value="实例化" style="text;html=1;align=center;verticalAlign=middle;resizable=0;points=[];autosize=1;strokeColor=none;fillColor=none;fontSize=14;fontFamily=Times New Roman;fontColor=default;" parent="1" vertex="1">
                    <mxGeometry x="628" y="225" width="52" height="21" as="geometry"/>
                </mxCell>
                <mxCell id="54" value="CDP" style="text;html=1;align=center;verticalAlign=middle;resizable=0;points=[];autosize=1;strokeColor=none;fillColor=none;fontSize=16;fontFamily=Times New Roman;fontColor=default;" parent="1" vertex="1">
                    <mxGeometry x="457.5" y="189" width="41" height="23" as="geometry"/>
                </mxCell>
                <mxCell id="56" value="" style="shape=image;verticalLabelPosition=bottom;labelBackgroundColor=#ffffff;verticalAlign=top;aspect=fixed;imageAspect=0;image=data:image/svg+xml,PHN2ZyB4bWxucz0iaHR0cDovL3d3dy53My5vcmcvMjAwMC9zdmciIHdpZHRoPSI0MDAiIGhlaWdodD0iNDAwIiB2aWV3Qm94PSIwIDAgNDAwIDQwMCIgZmlsbD0ibm9uZSI+CjxwYXRoIGQ9Ik0xMzYuNDQ0IDIyMS41NTZDMTIzLjU1OCAyMjUuMjEzIDExNS4xMDQgMjMxLjYyNSAxMDkuNTM1IDIzOC4wMzJDMTE0Ljg2OSAyMzMuMzY0IDEyMi4wMTQgMjI5LjA4IDEzMS42NTIgMjI2LjM0OEMxNDEuNTEgMjIzLjU1NCAxNDkuOTIgMjIzLjU3NCAxNTYuODY5IDIyNC45MTVWMjE5LjQ4MUMxNTAuOTQxIDIxOC45MzkgMTQ0LjE0NSAyMTkuMzcxIDEzNi40NDQgMjIxLjU1NlpNMTA4Ljk0NiAxNzUuODc2TDYxLjA4OTUgMTg4LjQ4NEM2MS4wODk1IDE4OC40ODQgNjEuOTYxNyAxODkuNzE2IDYzLjU3NjcgMTkxLjM2TDEwNC4xNTMgMTgwLjY2OEMxMDQuMTUzIDE4MC42NjggMTAzLjU3OCAxODguMDc3IDk4LjU4NDcgMTk0LjcwNUMxMDguMDMgMTg3LjU1OSAxMDguOTQ2IDE3NS44NzYgMTA4Ljk0NiAxNzUuODc2Wk0xNDkuMDA1IDI4OC4zNDdDODEuNjU4MiAzMDYuNDg2IDQ2LjAyNzIgMjI4LjQzOCAzNS4yMzk2IDE4Ny45MjhDMzAuMjU1NiAxNjkuMjI5IDI4LjA3OTkgMTU1LjA2NyAyNy41IDE0NS45MjhDMjcuNDM3NyAxNDQuOTc5IDI3LjQ2NjUgMTQ0LjE3OSAyNy41MzM2IDE0My40NDZDMjQuMDQgMTQzLjY1NyAyMi4zNjc0IDE0NS40NzMgMjIuNzA3NyAxNTAuNzIxQzIzLjI4NzYgMTU5Ljg1NSAyNS40NjMzIDE3NC4wMTYgMzAuNDQ3MyAxOTIuNzIxQzQxLjIzMDEgMjMzLjIyNSA3Ni44NjU5IDMxMS4yNzMgMTQ0LjIxMyAyOTMuMTM0QzE1OC44NzIgMjg5LjE4NSAxNjkuODg1IDI4MS45OTIgMTc4LjE1MiAyNzIuODFDMTcwLjUzMiAyNzkuNjkyIDE2MC45OTUgMjg1LjExMiAxNDkuMDA1IDI4OC4zNDdaTTE2MS42NjEgMTI4LjExVjEzMi45MDNIMTg4LjA3N0MxODcuNTM1IDEzMS4yMDYgMTg2Ljk4OSAxMjkuNjc3IDE4Ni40NDcgMTI4LjExSDE2MS42NjFaIiBmaWxsPSIjMkQ0NTUyIi8+CjxwYXRoIGQ9Ik0xOTMuOTgxIDE2Ny41ODRDMjA1Ljg2MSAxNzAuOTU4IDIxMi4xNDQgMTc5LjI4NyAyMTUuNDY1IDE4Ni42NThMMjI4LjcxMSAxOTAuNDJDMjI4LjcxMSAxOTAuNDIgMjI2LjkwNCAxNjQuNjIzIDIwMy41NyAxNTcuOTk1QzE4MS43NDEgMTUxLjc5MyAxNjguMzA4IDE3MC4xMjQgMTY2LjY3NCAxNzIuNDk2QzE3My4wMjQgMTY3Ljk3MiAxODIuMjk3IDE2NC4yNjggMTkzLjk4MSAxNjcuNTg0Wk0yOTkuNDIyIDE4Ni43NzdDMjc3LjU3MyAxODAuNTQ3IDI2NC4xNDUgMTk4LjkxNiAyNjIuNTM1IDIwMS4yNTVDMjY4Ljg5IDE5Ni43MzYgMjc4LjE1OCAxOTMuMDMxIDI4OS44MzcgMTk2LjM2MkMzMDEuNjk4IDE5OS43NDEgMzA3Ljk3NiAyMDguMDYgMzExLjMwNyAyMTUuNDM2TDMyNC41NzIgMjE5LjIxMkMzMjQuNTcyIDIxOS4yMTIgMzIyLjczNiAxOTMuNDEgMjk5LjQyMiAxODYuNzc3Wk0yODYuMjYyIDI1NC43OTVMMTc2LjA3MiAyMjMuOTlDMTc2LjA3MiAyMjMuOTkgMTc3LjI2NSAyMzAuMDM4IDE4MS44NDIgMjM3Ljg2OUwyNzQuNjE3IDI2My44MDVDMjgyLjI1NSAyNTkuMzg2IDI4Ni4yNjIgMjU0Ljc5NSAyODYuMjYyIDI1NC43OTVaTTIwOS44NjcgMzIxLjEwMkMxMjIuNjE4IDI5Ny43MSAxMzMuMTY2IDE4Ni41NDMgMTQ3LjI4NCAxMzMuODY1QzE1My4wOTcgMTEyLjE1NiAxNTkuMDczIDk2LjAyMDMgMTY0LjAyOSA4NS4yMDRDMTYxLjA3MiA4NC41OTUzIDE1OC42MjMgODYuMTUyOSAxNTYuMjAzIDkxLjA3NDZDMTUwLjk0MSAxMDEuNzQ3IDE0NC4yMTIgMTE5LjEyNCAxMzcuNyAxNDMuNDVDMTIzLjU4NiAxOTYuMTI3IDExMy4wMzggMzA3LjI5IDIwMC4yODMgMzMwLjY4MkMyNDEuNDA2IDM0MS42OTkgMjczLjQ0MiAzMjQuOTU1IDI5Ny4zMjMgMjk4LjY1OUMyNzQuNjU1IDMxOS4xOSAyNDUuNzE0IDMzMC43MDEgMjA5Ljg2NyAzMjEuMTAyWiIgZmlsbD0iIzJENDU1MiIvPgo8cGF0aCBkPSJNMTYxLjY2MSAyNjIuMjk2VjIzOS44NjNMOTkuMzMyNCAyNTcuNTM3Qzk5LjMzMjQgMjU3LjUzNyAxMDMuOTM4IDIzMC43NzcgMTM2LjQ0NCAyMjEuNTU2QzE0Ni4zMDIgMjE4Ljc2MiAxNTQuNzEzIDIxOC43ODEgMTYxLjY2MSAyMjAuMTIzVjEyOC4xMUgxOTIuODY5QzE4OS40NzEgMTE3LjYxIDE4Ni4xODQgMTA5LjUyNiAxODMuNDIzIDEwMy45MDlDMTc4Ljg1NiA5NC42MTIgMTc0LjE3NCAxMDAuNzc1IDE2My41NDUgMTA5LjY2NUMxNTYuMDU5IDExNS45MTkgMTM3LjEzOSAxMjkuMjYxIDEwOC42NjggMTM2LjkzM0M4MC4xOTY2IDE0NC42MSA1Ny4xNzkgMTQyLjU3NCA0Ny41NzUyIDE0MC45MTFDMzMuOTYwMSAxMzguNTYyIDI2LjgzODcgMTM1LjU3MiAyNy41MDQ5IDE0NS45MjhDMjguMDg0NyAxNTUuMDYyIDMwLjI2MDUgMTY5LjIyNCAzNS4yNDQ1IDE4Ny45MjhDNDYuMDI3MiAyMjguNDMzIDgxLjY2MyAzMDYuNDgxIDE0OS4wMSAyODguMzQyQzE2Ni42MDIgMjgzLjYwMiAxNzkuMDE5IDI3NC4yMzMgMTg3LjYyNiAyNjIuMjkxSDE2MS42NjFWMjYyLjI5NlpNNjEuMDg0OCAxODguNDg0TDEwOC45NDYgMTc1Ljg3NkMxMDguOTQ2IDE3NS44NzYgMTA3LjU1MSAxOTQuMjg4IDg5LjYwODcgMTk5LjAxOEM3MS42NjE0IDIwMy43NDMgNjEuMDg0OCAxODguNDg0IDYxLjA4NDggMTg4LjQ4NFoiIGZpbGw9IiNFMjU3NEMiLz4KPHBhdGggZD0iTTM0MS43ODYgMTI5LjE3NEMzMjkuMzQ1IDEzMS4zNTUgMjk5LjQ5OCAxMzQuMDcyIDI2Mi42MTIgMTI0LjE4NUMyMjUuNzE2IDExNC4zMDQgMjAxLjIzNiA5Ny4wMjI0IDE5MS41MzcgODguODk5NEMxNzcuNzg4IDc3LjM4MzQgMTcxLjc0IDY5LjM4MDIgMTY1Ljc4OCA4MS40ODU3QzE2MC41MjYgOTIuMTYzIDE1My43OTcgMTA5LjU0IDE0Ny4yODQgMTMzLjg2NkMxMzMuMTcxIDE4Ni41NDMgMTIyLjYyMyAyOTcuNzA2IDIwOS44NjcgMzIxLjA5OEMyOTcuMDkzIDM0NC40NyAzNDMuNTMgMjQyLjkyIDM1Ny42NDQgMTkwLjIzOEMzNjQuMTU3IDE2NS45MTcgMzY3LjAxMyAxNDcuNSAzNjcuNzk5IDEzNS42MjVDMzY4LjY5NSAxMjIuMTczIDM1OS40NTUgMTI2LjA3OCAzNDEuNzg2IDEyOS4xNzRaTTE2Ni40OTcgMTcyLjc1NkMxNjYuNDk3IDE3Mi43NTYgMTgwLjI0NiAxNTEuMzcyIDIwMy41NjUgMTU4QzIyNi44OTkgMTY0LjYyOCAyMjguNzA2IDE5MC40MjUgMjI4LjcwNiAxOTAuNDI1TDE2Ni40OTcgMTcyLjc1NlpNMjIzLjQyIDI2OC43MTNDMTgyLjQwMyAyNTYuNjk4IDE3Ni4wNzcgMjIzLjk5IDE3Ni4wNzcgMjIzLjk5TDI4Ni4yNjIgMjU0Ljc5NkMyODYuMjYyIDI1NC43OTEgMjY0LjAyMSAyODAuNTc4IDIyMy40MiAyNjguNzEzWk0yNjIuMzc3IDIwMS40OTVDMjYyLjM3NyAyMDEuNDk1IDI3Ni4xMDcgMTgwLjEyNiAyOTkuNDIyIDE4Ni43NzNDMzIyLjczNiAxOTMuNDExIDMyNC41NzIgMjE5LjIwOCAzMjQuNTcyIDIxOS4yMDhMMjYyLjM3NyAyMDEuNDk1WiIgZmlsbD0iIzJFQUQzMyIvPgo8cGF0aCBkPSJNMTM5Ljg4IDI0Ni4wNEw5OS4zMzI0IDI1Ny41MzJDOTkuMzMyNCAyNTcuNTMyIDEwMy43MzcgMjMyLjQ0IDEzMy42MDcgMjIyLjQ5NkwxMTAuNjQ3IDEzNi4zM0wxMDguNjYzIDEzNi45MzNDODAuMTkxOCAxNDQuNjExIDU3LjE3NDIgMTQyLjU3NCA0Ny41NzA0IDE0MC45MTFDMzMuOTU1NCAxMzguNTYzIDI2LjgzNCAxMzUuNTcyIDI3LjUwMDEgMTQ1LjkyOUMyOC4wOCAxNTUuMDYzIDMwLjI1NTcgMTY5LjIyNCAzNS4yMzk3IDE4Ny45MjlDNDYuMDIyNSAyMjguNDMzIDgxLjY1ODMgMzA2LjQ4MSAxNDkuMDA1IDI4OC4zNDJMMTUwLjk4OSAyODcuNzE5TDEzOS44OCAyNDYuMDRaTTYxLjA4NDggMTg4LjQ4NUwxMDguOTQ2IDE3NS44NzZDMTA4Ljk0NiAxNzUuODc2IDEwNy41NTEgMTk0LjI4OCA4OS42MDg3IDE5OS4wMThDNzEuNjYxNSAyMDMuNzQzIDYxLjA4NDggMTg4LjQ4NSA2MS4wODQ4IDE4OC40ODVaIiBmaWxsPSIjRDY1MzQ4Ii8+CjxwYXRoIGQ9Ik0yMjUuMjcgMjY5LjE2M0wyMjMuNDE1IDI2OC43MTJDMTgyLjM5OCAyNTYuNjk4IDE3Ni4wNzIgMjIzLjk5IDE3Ni4wNzIgMjIzLjk5TDIzMi44OSAyMzkuODcyTDI2Mi45NzEgMTI0LjI4MUwyNjIuNjA3IDEyNC4xODVDMjI1LjcxMSAxMTQuMzA0IDIwMS4yMzIgOTcuMDIyNCAxOTEuNTMyIDg4Ljg5OTRDMTc3Ljc4MyA3Ny4zODM0IDE3MS43MzUgNjkuMzgwMiAxNjUuNzgzIDgxLjQ4NTdDMTYwLjUyNiA5Mi4xNjMgMTUzLjc5NyAxMDkuNTQgMTQ3LjI4NCAxMzMuODY2QzEzMy4xNzEgMTg2LjU0MyAxMjIuNjIzIDI5Ny43MDYgMjA5Ljg2NyAzMjEuMDk3TDIxMS42NTUgMzIxLjVMMjI1LjI3IDI2OS4xNjNaTTE2Ni40OTcgMTcyLjc1NkMxNjYuNDk3IDE3Mi43NTYgMTgwLjI0NiAxNTEuMzcyIDIwMy41NjUgMTU4QzIyNi44OTkgMTY0LjYyOCAyMjguNzA2IDE5MC40MjUgMjI4LjcwNiAxOTAuNDI1TDE2Ni40OTcgMTcyLjc1NloiIGZpbGw9IiMxRDhEMjIiLz4KPHBhdGggZD0iTTE0MS45NDYgMjQ1LjQ1MUwxMzEuMDcyIDI0OC41MzdDMTMzLjY0MSAyNjMuMDE5IDEzOC4xNjkgMjc2LjkxNyAxNDUuMjc2IDI4OS4xOTVDMTQ2LjUxMyAyODguOTIyIDE0Ny43NCAyODguNjg3IDE0OSAyODguMzQyQzE1Mi4zMDIgMjg3LjQ1MSAxNTUuMzY0IDI4Ni4zNDggMTU4LjMxMiAyODUuMTQ1QzE1MC4zNzEgMjczLjM2MSAxNDUuMTE4IDI1OS43ODkgMTQxLjk0NiAyNDUuNDUxWk0xMzcuNyAxNDMuNDUxQzEzMi4xMTIgMTY0LjMwNyAxMjcuMTEzIDE5NC4zMjYgMTI4LjQ4OSAyMjQuNDM2QzEzMC45NTIgMjIzLjM2NyAxMzMuNTU0IDIyMi4zNzEgMTM2LjQ0NCAyMjEuNTUxTDEzOC40NTcgMjIxLjEwMUMxMzYuMDAzIDE4OC45MzkgMTQxLjMwOCAxNTYuMTY1IDE0Ny4yODQgMTMzLjg2NkMxNDguNzk5IDEyOC4yMjUgMTUwLjMxOCAxMjIuOTc4IDE1MS44MzIgMTE4LjA4NUMxNDkuMzkzIDExOS42MzcgMTQ2Ljc2NyAxMjEuMjI4IDE0My43NzYgMTIyLjg2N0MxNDEuNzU5IDEyOS4wOTMgMTM5LjcyMiAxMzUuODk4IDEzNy43IDE0My40NTFaIiBmaWxsPSIjQzA0QjQxIi8+Cjwvc3ZnPg==;" parent="1" vertex="1">
                    <mxGeometry x="332" y="166.5" width="107" height="107" as="geometry"/>
                </mxCell>
                <mxCell id="99" style="edgeStyle=none;html=1;fontFamily=Helvetica;fontSize=13;fontColor=#000000;fillColor=#E6E6E6;" edge="1" parent="1" source="64">
                    <mxGeometry relative="1" as="geometry">
                        <mxPoint x="358.6470588235295" y="1309.4999999999995" as="targetPoint"/>
                    </mxGeometry>
                </mxCell>
                <mxCell id="64" value="" style="shape=image;verticalLabelPosition=bottom;labelBackgroundColor=#ffffff;verticalAlign=top;aspect=fixed;imageAspect=0;image=data:image/svg+xml,PHN2ZyB4bWxucz0iaHR0cDovL3d3dy53My5vcmcvMjAwMC9zdmciIHdpZHRoPSI0MDAiIGhlaWdodD0iNDAwIiB2aWV3Qm94PSIwIDAgNDAwIDQwMCIgZmlsbD0ibm9uZSI+CjxwYXRoIGQ9Ik0xMzYuNDQ0IDIyMS41NTZDMTIzLjU1OCAyMjUuMjEzIDExNS4xMDQgMjMxLjYyNSAxMDkuNTM1IDIzOC4wMzJDMTE0Ljg2OSAyMzMuMzY0IDEyMi4wMTQgMjI5LjA4IDEzMS42NTIgMjI2LjM0OEMxNDEuNTEgMjIzLjU1NCAxNDkuOTIgMjIzLjU3NCAxNTYuODY5IDIyNC45MTVWMjE5LjQ4MUMxNTAuOTQxIDIxOC45MzkgMTQ0LjE0NSAyMTkuMzcxIDEzNi40NDQgMjIxLjU1NlpNMTA4Ljk0NiAxNzUuODc2TDYxLjA4OTUgMTg4LjQ4NEM2MS4wODk1IDE4OC40ODQgNjEuOTYxNyAxODkuNzE2IDYzLjU3NjcgMTkxLjM2TDEwNC4xNTMgMTgwLjY2OEMxMDQuMTUzIDE4MC42NjggMTAzLjU3OCAxODguMDc3IDk4LjU4NDcgMTk0LjcwNUMxMDguMDMgMTg3LjU1OSAxMDguOTQ2IDE3NS44NzYgMTA4Ljk0NiAxNzUuODc2Wk0xNDkuMDA1IDI4OC4zNDdDODEuNjU4MiAzMDYuNDg2IDQ2LjAyNzIgMjI4LjQzOCAzNS4yMzk2IDE4Ny45MjhDMzAuMjU1NiAxNjkuMjI5IDI4LjA3OTkgMTU1LjA2NyAyNy41IDE0NS45MjhDMjcuNDM3NyAxNDQuOTc5IDI3LjQ2NjUgMTQ0LjE3OSAyNy41MzM2IDE0My40NDZDMjQuMDQgMTQzLjY1NyAyMi4zNjc0IDE0NS40NzMgMjIuNzA3NyAxNTAuNzIxQzIzLjI4NzYgMTU5Ljg1NSAyNS40NjMzIDE3NC4wMTYgMzAuNDQ3MyAxOTIuNzIxQzQxLjIzMDEgMjMzLjIyNSA3Ni44NjU5IDMxMS4yNzMgMTQ0LjIxMyAyOTMuMTM0QzE1OC44NzIgMjg5LjE4NSAxNjkuODg1IDI4MS45OTIgMTc4LjE1MiAyNzIuODFDMTcwLjUzMiAyNzkuNjkyIDE2MC45OTUgMjg1LjExMiAxNDkuMDA1IDI4OC4zNDdaTTE2MS42NjEgMTI4LjExVjEzMi45MDNIMTg4LjA3N0MxODcuNTM1IDEzMS4yMDYgMTg2Ljk4OSAxMjkuNjc3IDE4Ni40NDcgMTI4LjExSDE2MS42NjFaIiBmaWxsPSIjMkQ0NTUyIi8+CjxwYXRoIGQ9Ik0xOTMuOTgxIDE2Ny41ODRDMjA1Ljg2MSAxNzAuOTU4IDIxMi4xNDQgMTc5LjI4NyAyMTUuNDY1IDE4Ni42NThMMjI4LjcxMSAxOTAuNDJDMjI4LjcxMSAxOTAuNDIgMjI2LjkwNCAxNjQuNjIzIDIwMy41NyAxNTcuOTk1QzE4MS43NDEgMTUxLjc5MyAxNjguMzA4IDE3MC4xMjQgMTY2LjY3NCAxNzIuNDk2QzE3My4wMjQgMTY3Ljk3MiAxODIuMjk3IDE2NC4yNjggMTkzLjk4MSAxNjcuNTg0Wk0yOTkuNDIyIDE4Ni43NzdDMjc3LjU3MyAxODAuNTQ3IDI2NC4xNDUgMTk4LjkxNiAyNjIuNTM1IDIwMS4yNTVDMjY4Ljg5IDE5Ni43MzYgMjc4LjE1OCAxOTMuMDMxIDI4OS44MzcgMTk2LjM2MkMzMDEuNjk4IDE5OS43NDEgMzA3Ljk3NiAyMDguMDYgMzExLjMwNyAyMTUuNDM2TDMyNC41NzIgMjE5LjIxMkMzMjQuNTcyIDIxOS4yMTIgMzIyLjczNiAxOTMuNDEgMjk5LjQyMiAxODYuNzc3Wk0yODYuMjYyIDI1NC43OTVMMTc2LjA3MiAyMjMuOTlDMTc2LjA3MiAyMjMuOTkgMTc3LjI2NSAyMzAuMDM4IDE4MS44NDIgMjM3Ljg2OUwyNzQuNjE3IDI2My44MDVDMjgyLjI1NSAyNTkuMzg2IDI4Ni4yNjIgMjU0Ljc5NSAyODYuMjYyIDI1NC43OTVaTTIwOS44NjcgMzIxLjEwMkMxMjIuNjE4IDI5Ny43MSAxMzMuMTY2IDE4Ni41NDMgMTQ3LjI4NCAxMzMuODY1QzE1My4wOTcgMTEyLjE1NiAxNTkuMDczIDk2LjAyMDMgMTY0LjAyOSA4NS4yMDRDMTYxLjA3MiA4NC41OTUzIDE1OC42MjMgODYuMTUyOSAxNTYuMjAzIDkxLjA3NDZDMTUwLjk0MSAxMDEuNzQ3IDE0NC4yMTIgMTE5LjEyNCAxMzcuNyAxNDMuNDVDMTIzLjU4NiAxOTYuMTI3IDExMy4wMzggMzA3LjI5IDIwMC4yODMgMzMwLjY4MkMyNDEuNDA2IDM0MS42OTkgMjczLjQ0MiAzMjQuOTU1IDI5Ny4zMjMgMjk4LjY1OUMyNzQuNjU1IDMxOS4xOSAyNDUuNzE0IDMzMC43MDEgMjA5Ljg2NyAzMjEuMTAyWiIgZmlsbD0iIzJENDU1MiIvPgo8cGF0aCBkPSJNMTYxLjY2MSAyNjIuMjk2VjIzOS44NjNMOTkuMzMyNCAyNTcuNTM3Qzk5LjMzMjQgMjU3LjUzNyAxMDMuOTM4IDIzMC43NzcgMTM2LjQ0NCAyMjEuNTU2QzE0Ni4zMDIgMjE4Ljc2MiAxNTQuNzEzIDIxOC43ODEgMTYxLjY2MSAyMjAuMTIzVjEyOC4xMUgxOTIuODY5QzE4OS40NzEgMTE3LjYxIDE4Ni4xODQgMTA5LjUyNiAxODMuNDIzIDEwMy45MDlDMTc4Ljg1NiA5NC42MTIgMTc0LjE3NCAxMDAuNzc1IDE2My41NDUgMTA5LjY2NUMxNTYuMDU5IDExNS45MTkgMTM3LjEzOSAxMjkuMjYxIDEwOC42NjggMTM2LjkzM0M4MC4xOTY2IDE0NC42MSA1Ny4xNzkgMTQyLjU3NCA0Ny41NzUyIDE0MC45MTFDMzMuOTYwMSAxMzguNTYyIDI2LjgzODcgMTM1LjU3MiAyNy41MDQ5IDE0NS45MjhDMjguMDg0NyAxNTUuMDYyIDMwLjI2MDUgMTY5LjIyNCAzNS4yNDQ1IDE4Ny45MjhDNDYuMDI3MiAyMjguNDMzIDgxLjY2MyAzMDYuNDgxIDE0OS4wMSAyODguMzQyQzE2Ni42MDIgMjgzLjYwMiAxNzkuMDE5IDI3NC4yMzMgMTg3LjYyNiAyNjIuMjkxSDE2MS42NjFWMjYyLjI5NlpNNjEuMDg0OCAxODguNDg0TDEwOC45NDYgMTc1Ljg3NkMxMDguOTQ2IDE3NS44NzYgMTA3LjU1MSAxOTQuMjg4IDg5LjYwODcgMTk5LjAxOEM3MS42NjE0IDIwMy43NDMgNjEuMDg0OCAxODguNDg0IDYxLjA4NDggMTg4LjQ4NFoiIGZpbGw9IiNFMjU3NEMiLz4KPHBhdGggZD0iTTM0MS43ODYgMTI5LjE3NEMzMjkuMzQ1IDEzMS4zNTUgMjk5LjQ5OCAxMzQuMDcyIDI2Mi42MTIgMTI0LjE4NUMyMjUuNzE2IDExNC4zMDQgMjAxLjIzNiA5Ny4wMjI0IDE5MS41MzcgODguODk5NEMxNzcuNzg4IDc3LjM4MzQgMTcxLjc0IDY5LjM4MDIgMTY1Ljc4OCA4MS40ODU3QzE2MC41MjYgOTIuMTYzIDE1My43OTcgMTA5LjU0IDE0Ny4yODQgMTMzLjg2NkMxMzMuMTcxIDE4Ni41NDMgMTIyLjYyMyAyOTcuNzA2IDIwOS44NjcgMzIxLjA5OEMyOTcuMDkzIDM0NC40NyAzNDMuNTMgMjQyLjkyIDM1Ny42NDQgMTkwLjIzOEMzNjQuMTU3IDE2NS45MTcgMzY3LjAxMyAxNDcuNSAzNjcuNzk5IDEzNS42MjVDMzY4LjY5NSAxMjIuMTczIDM1OS40NTUgMTI2LjA3OCAzNDEuNzg2IDEyOS4xNzRaTTE2Ni40OTcgMTcyLjc1NkMxNjYuNDk3IDE3Mi43NTYgMTgwLjI0NiAxNTEuMzcyIDIwMy41NjUgMTU4QzIyNi44OTkgMTY0LjYyOCAyMjguNzA2IDE5MC40MjUgMjI4LjcwNiAxOTAuNDI1TDE2Ni40OTcgMTcyLjc1NlpNMjIzLjQyIDI2OC43MTNDMTgyLjQwMyAyNTYuNjk4IDE3Ni4wNzcgMjIzLjk5IDE3Ni4wNzcgMjIzLjk5TDI4Ni4yNjIgMjU0Ljc5NkMyODYuMjYyIDI1NC43OTEgMjY0LjAyMSAyODAuNTc4IDIyMy40MiAyNjguNzEzWk0yNjIuMzc3IDIwMS40OTVDMjYyLjM3NyAyMDEuNDk1IDI3Ni4xMDcgMTgwLjEyNiAyOTkuNDIyIDE4Ni43NzNDMzIyLjczNiAxOTMuNDExIDMyNC41NzIgMjE5LjIwOCAzMjQuNTcyIDIxOS4yMDhMMjYyLjM3NyAyMDEuNDk1WiIgZmlsbD0iIzJFQUQzMyIvPgo8cGF0aCBkPSJNMTM5Ljg4IDI0Ni4wNEw5OS4zMzI0IDI1Ny41MzJDOTkuMzMyNCAyNTcuNTMyIDEwMy43MzcgMjMyLjQ0IDEzMy42MDcgMjIyLjQ5NkwxMTAuNjQ3IDEzNi4zM0wxMDguNjYzIDEzNi45MzNDODAuMTkxOCAxNDQuNjExIDU3LjE3NDIgMTQyLjU3NCA0Ny41NzA0IDE0MC45MTFDMzMuOTU1NCAxMzguNTYzIDI2LjgzNCAxMzUuNTcyIDI3LjUwMDEgMTQ1LjkyOUMyOC4wOCAxNTUuMDYzIDMwLjI1NTcgMTY5LjIyNCAzNS4yMzk3IDE4Ny45MjlDNDYuMDIyNSAyMjguNDMzIDgxLjY1ODMgMzA2LjQ4MSAxNDkuMDA1IDI4OC4zNDJMMTUwLjk4OSAyODcuNzE5TDEzOS44OCAyNDYuMDRaTTYxLjA4NDggMTg4LjQ4NUwxMDguOTQ2IDE3NS44NzZDMTA4Ljk0NiAxNzUuODc2IDEwNy41NTEgMTk0LjI4OCA4OS42MDg3IDE5OS4wMThDNzEuNjYxNSAyMDMuNzQzIDYxLjA4NDggMTg4LjQ4NSA2MS4wODQ4IDE4OC40ODVaIiBmaWxsPSIjRDY1MzQ4Ii8+CjxwYXRoIGQ9Ik0yMjUuMjcgMjY5LjE2M0wyMjMuNDE1IDI2OC43MTJDMTgyLjM5OCAyNTYuNjk4IDE3Ni4wNzIgMjIzLjk5IDE3Ni4wNzIgMjIzLjk5TDIzMi44OSAyMzkuODcyTDI2Mi45NzEgMTI0LjI4MUwyNjIuNjA3IDEyNC4xODVDMjI1LjcxMSAxMTQuMzA0IDIwMS4yMzIgOTcuMDIyNCAxOTEuNTMyIDg4Ljg5OTRDMTc3Ljc4MyA3Ny4zODM0IDE3MS43MzUgNjkuMzgwMiAxNjUuNzgzIDgxLjQ4NTdDMTYwLjUyNiA5Mi4xNjMgMTUzLjc5NyAxMDkuNTQgMTQ3LjI4NCAxMzMuODY2QzEzMy4xNzEgMTg2LjU0MyAxMjIuNjIzIDI5Ny43MDYgMjA5Ljg2NyAzMjEuMDk3TDIxMS42NTUgMzIxLjVMMjI1LjI3IDI2OS4xNjNaTTE2Ni40OTcgMTcyLjc1NkMxNjYuNDk3IDE3Mi43NTYgMTgwLjI0NiAxNTEuMzcyIDIwMy41NjUgMTU4QzIyNi44OTkgMTY0LjYyOCAyMjguNzA2IDE5MC40MjUgMjI4LjcwNiAxOTAuNDI1TDE2Ni40OTcgMTcyLjc1NloiIGZpbGw9IiMxRDhEMjIiLz4KPHBhdGggZD0iTTE0MS45NDYgMjQ1LjQ1MUwxMzEuMDcyIDI0OC41MzdDMTMzLjY0MSAyNjMuMDE5IDEzOC4xNjkgMjc2LjkxNyAxNDUuMjc2IDI4OS4xOTVDMTQ2LjUxMyAyODguOTIyIDE0Ny43NCAyODguNjg3IDE0OSAyODguMzQyQzE1Mi4zMDIgMjg3LjQ1MSAxNTUuMzY0IDI4Ni4zNDggMTU4LjMxMiAyODUuMTQ1QzE1MC4zNzEgMjczLjM2MSAxNDUuMTE4IDI1OS43ODkgMTQxLjk0NiAyNDUuNDUxWk0xMzcuNyAxNDMuNDUxQzEzMi4xMTIgMTY0LjMwNyAxMjcuMTEzIDE5NC4zMjYgMTI4LjQ4OSAyMjQuNDM2QzEzMC45NTIgMjIzLjM2NyAxMzMuNTU0IDIyMi4zNzEgMTM2LjQ0NCAyMjEuNTUxTDEzOC40NTcgMjIxLjEwMUMxMzYuMDAzIDE4OC45MzkgMTQxLjMwOCAxNTYuMTY1IDE0Ny4yODQgMTMzLjg2NkMxNDguNzk5IDEyOC4yMjUgMTUwLjMxOCAxMjIuOTc4IDE1MS44MzIgMTE4LjA4NUMxNDkuMzkzIDExOS42MzcgMTQ2Ljc2NyAxMjEuMjI4IDE0My43NzYgMTIyLjg2N0MxNDEuNzU5IDEyOS4wOTMgMTM5LjcyMiAxMzUuODk4IDEzNy43IDE0My40NTFaIiBmaWxsPSIjQzA0QjQxIi8+Cjwvc3ZnPg==;" vertex="1" parent="1">
                    <mxGeometry x="455.5" y="1225" width="167" height="167" as="geometry"/>
                </mxCell>
                <mxCell id="65" value="playwright" style="text;html=1;align=center;verticalAlign=middle;resizable=0;points=[];autosize=1;strokeColor=none;fillColor=none;fontSize=19;fontFamily=Times New Roman;fontColor=default;" vertex="1" parent="1">
                    <mxGeometry x="493" y="1230" width="92" height="27" as="geometry"/>
                </mxCell>
                <mxCell id="78" value="@playwright/experimental-ct-vue" style="text;html=1;align=center;verticalAlign=middle;resizable=0;points=[];autosize=1;strokeColor=none;fillColor=none;fontSize=15;fontFamily=Helvetica;fontColor=#000000;labelBackgroundColor=none;" vertex="1" parent="1">
                    <mxGeometry x="226" y="649" width="229" height="22" as="geometry"/>
                </mxCell>
                <mxCell id="71" value="插件注入：&lt;span style=&quot;font-size: 16px;&quot;&gt;playwright-vite-plugin&lt;/span&gt;" style="rounded=0;whiteSpace=wrap;html=1;labelBackgroundColor=#FFFFFF;fontFamily=Helvetica;fontSize=14;fontColor=#000000;" vertex="1" parent="1">
                    <mxGeometry x="252" y="698" width="305" height="60" as="geometry"/>
                </mxCell>
                <mxCell id="72" value="方法注入：mount、unmount、rerender" style="rounded=0;whiteSpace=wrap;html=1;labelBackgroundColor=#FFFFFF;fontFamily=Helvetica;fontSize=14;fontColor=#000000;" vertex="1" parent="1">
                    <mxGeometry x="251" y="786" width="307" height="60" as="geometry"/>
                </mxCell>
                <mxCell id="84" value="" style="rounded=1;whiteSpace=wrap;html=1;labelBackgroundColor=#FFFFFF;fontFamily=Helvetica;fontSize=14;fontColor=#000000;fillColor=#f0a30a;strokeColor=#BD7000;" vertex="1" parent="1">
                    <mxGeometry x="215" y="949" width="379" height="227" as="geometry"/>
                </mxCell>
                <mxCell id="79" value="&lt;div style=&quot;font-size: 16px ; line-height: 24px&quot;&gt;&lt;span&gt;@playwright/test - global-setup&lt;/span&gt;&lt;/div&gt;" style="text;html=1;align=center;verticalAlign=middle;resizable=0;points=[];autosize=1;strokeColor=none;fillColor=none;fontSize=14;fontFamily=Helvetica;fontColor=#000000;labelBackgroundColor=none;" vertex="1" parent="1">
                    <mxGeometry x="222" y="971" width="230" height="28" as="geometry"/>
                </mxCell>
                <mxCell id="74" value="插件启动：&lt;span style=&quot;font-size: 16px;&quot;&gt;playwright-vite-plugin&lt;/span&gt;" style="rounded=0;whiteSpace=wrap;html=1;labelBackgroundColor=#FFFFFF;fontFamily=Helvetica;fontSize=14;fontColor=#000000;" vertex="1" parent="1">
                    <mxGeometry x="251" y="1013" width="305" height="60" as="geometry"/>
                </mxCell>
                <mxCell id="85" value="Page" style="html=1;strokeColor=none;fillColor=#0079D6;labelPosition=center;verticalLabelPosition=middle;verticalAlign=top;align=center;fontSize=12;outlineConnect=0;spacingTop=-6;fontColor=#FFFFFF;sketch=0;shape=mxgraph.sitemap.page;rounded=1;labelBackgroundColor=none;fontFamily=Helvetica;" vertex="1" parent="1">
                    <mxGeometry x="137" y="1239" width="219" height="113" as="geometry"/>
                </mxCell>
                <mxCell id="81" value="mount component" style="rounded=0;whiteSpace=wrap;html=1;labelBackgroundColor=#FFFFFF;fontFamily=Helvetica;fontSize=14;fontColor=#000000;" vertex="1" parent="1">
                    <mxGeometry x="163.5" y="1280.5" width="167" height="48" as="geometry"/>
                </mxCell>
                <mxCell id="89" value="脚本执行" style="rounded=0;whiteSpace=wrap;html=1;labelBackgroundColor=#FFFFFF;fontFamily=Helvetica;fontSize=14;fontColor=#000000;" vertex="1" parent="1">
                    <mxGeometry x="251" y="1091.5" width="305" height="60" as="geometry"/>
                </mxCell>
                <mxCell id="93" value="" style="shape=flexArrow;endArrow=classic;html=1;fontFamily=Helvetica;fontSize=26;fontColor=#000000;fillColor=#E6E6E6;" edge="1" parent="1">
                    <mxGeometry width="50" height="50" relative="1" as="geometry">
                        <mxPoint x="404" y="893" as="sourcePoint"/>
                        <mxPoint x="403.91" y="943" as="targetPoint"/>
                    </mxGeometry>
                </mxCell>
                <mxCell id="95" value="" style="shape=flexArrow;endArrow=classic;html=1;fontFamily=Helvetica;fontSize=26;fontColor=#000000;fillColor=#E6E6E6;" edge="1" parent="1">
                    <mxGeometry width="50" height="50" relative="1" as="geometry">
                        <mxPoint x="282" y="1054" as="sourcePoint"/>
                        <mxPoint x="282" y="1227" as="targetPoint"/>
                    </mxGeometry>
                </mxCell>
                <mxCell id="96" value="" style="shape=flexArrow;endArrow=classic;html=1;fontFamily=Helvetica;fontSize=26;fontColor=#000000;fillColor=#E6E6E6;" edge="1" parent="1">
                    <mxGeometry width="50" height="50" relative="1" as="geometry">
                        <mxPoint x="533" y="1125" as="sourcePoint"/>
                        <mxPoint x="533" y="1230" as="targetPoint"/>
                    </mxGeometry>
                </mxCell>
                <mxCell id="98" value="控制" style="text;html=1;align=center;verticalAlign=middle;resizable=0;points=[];autosize=1;strokeColor=none;fillColor=none;fontSize=13;fontFamily=Helvetica;fontColor=#000000;" vertex="1" parent="1">
                    <mxGeometry x="392" y="1280.5" width="36" height="20" as="geometry"/>
                </mxCell>
            </root>
        </mxGraphModel>
    </diagram>
</mxfile>